<svg width="371" height="207" viewBox="0 0 371 207" fill="none" xmlns="http://www.w3.org/2000/svg">
<path d="M162.172 2.09208H177.672L150.975 54.5786H159.997L186.694 2L213.252 54.5786H221.534L194.93 2H210.43L263.685 107.249H248.232L229.123 69.5879H220.979L239.949 107.249H224.496L205.387 69.5879H191.09V54.5786H197.891L186.648 32.5251L175.451 54.5786H181.512V69.5879H167.863L148.8 107.157H133.393L152.317 69.5879H143.34L124.555 107.157H108.917L162.172 2.09208Z" fill="white" stroke="white"/>
<path d="M7.99828 175.482H0L17.0176 135.97H22.4065L39.4242 175.482H31.4259L27.682 166.732H11.7422L7.99828 175.482ZM19.6837 148.274L14.6352 159.959H24.7323L19.6837 148.274ZM37.7579 135.97H66.4039V142.743H55.9102V175.482H48.252V142.743H37.7579V135.97ZM71.7711 135.97H100.417V142.743H89.9232V175.482H82.2648V142.743H71.7711V135.97ZM130.181 142.743H114.013V150.927H126.21V157.701H114.013V168.708H130.748V175.482H106.356V135.97H130.181V142.743ZM142.932 135.97L157.398 159.621L171.862 135.97H177.252V175.482H169.593V153.468L160.064 168.99H154.732L145.201 153.468V175.482H137.544V135.97H142.932ZM201.266 159.394H194.006V175.482H186.347V135.97H201.266C205.88 135.97 209.321 137.155 211.59 139.526C213.67 141.67 214.71 144.399 214.71 147.71C214.71 151.022 213.67 153.75 211.59 155.895C209.359 158.228 205.918 159.394 201.266 159.394ZM194.006 152.621H200.926C203.158 152.621 204.764 152.094 205.748 151.041C206.617 150.099 207.052 148.99 207.052 147.71C207.052 146.393 206.617 145.264 205.748 144.323C204.764 143.27 203.158 142.743 200.926 142.743H194.006V152.621ZM230.366 146.13C227.871 148.764 226.622 151.962 226.622 155.726C226.622 159.489 227.871 162.687 230.366 165.321C232.862 167.956 235.963 169.273 239.669 169.273C243.375 169.273 246.476 167.956 248.972 165.321C251.469 162.687 252.716 159.489 252.716 155.726C252.716 151.962 251.469 148.764 248.972 146.13C246.476 143.495 243.375 142.179 239.669 142.179C235.963 142.179 232.862 143.495 230.366 146.13ZM224.75 170.176C220.893 166.263 218.965 161.446 218.965 155.726C218.965 150.006 220.893 145.189 224.75 141.275C228.646 137.362 233.619 135.405 239.669 135.405C245.72 135.405 250.674 137.362 254.532 141.275C258.426 145.189 260.374 150.006 260.374 155.726C260.374 161.446 258.426 166.263 254.532 170.176C250.674 174.089 245.72 176.046 239.669 176.046C233.619 176.046 228.646 174.089 224.75 170.176ZM277.053 157.984H274.274V175.482H266.616V135.97H281.081C284.712 135.97 287.604 136.948 289.76 138.905C292.104 141.125 293.277 143.816 293.277 146.977C293.277 150.137 292.104 152.828 289.76 155.048C288.626 156.102 287.302 156.873 285.79 157.363L300.651 175.482H291.178L277.053 157.984ZM274.274 151.21H280.627C282.481 151.21 283.766 150.815 284.485 150.025C285.241 149.197 285.619 148.2 285.619 147.033C285.619 145.829 285.241 144.813 284.485 143.985C283.728 143.157 282.443 142.743 280.627 142.743H274.274V151.21ZM310.626 175.482H302.628L319.645 135.97H325.035L342.052 175.482H334.054L330.31 166.732H314.37L310.626 175.482ZM322.311 148.274L317.264 159.959H327.36L322.311 148.274ZM346.608 175.482V135.97H354.266V168.708H371V175.482H346.608Z" fill="white"/>
<path d="M35.9001 200.505C35.9001 199.655 35.7257 198.865 35.3768 198.135C35.028 197.405 34.5408 196.794 33.9152 196.303C33.4581 195.956 32.9227 195.693 32.3092 195.513C31.7077 195.334 30.9619 195.244 30.0717 195.244H27.5995V205.766H30.0717C30.9619 205.766 31.7077 205.676 32.3092 205.497C32.9227 205.317 33.4581 205.054 33.9152 204.707C34.5408 204.216 35.028 203.605 35.3768 202.875C35.7257 202.145 35.9001 201.355 35.9001 200.505ZM36.9828 200.505C36.9828 201.558 36.7603 202.528 36.3152 203.414C35.8701 204.3 35.2565 205.03 34.4746 205.605C33.9573 205.988 33.3558 206.28 32.6701 206.484C31.9844 206.687 31.1363 206.79 30.1258 206.79H26.5168V194.22H30.1258C31.1363 194.22 31.9844 194.322 32.6701 194.525C33.3558 194.729 33.9573 195.023 34.4746 195.406C35.2565 195.98 35.8701 196.71 36.3152 197.596C36.7603 198.482 36.9828 199.452 36.9828 200.505ZM44.4728 194.22H45.5555V206.79H44.4728V194.22ZM53.6664 204.151C53.8468 204.389 54.0449 204.616 54.2614 204.832C54.49 205.047 54.7426 205.239 55.0193 205.407C55.296 205.574 55.5967 205.706 55.9215 205.802C56.2584 205.897 56.6378 205.945 57.0588 205.945C57.3716 205.945 57.6844 205.892 57.9971 205.784C58.3099 205.676 58.5866 205.521 58.8272 205.317C59.0798 205.114 59.2779 204.868 59.4222 204.581C59.5786 204.281 59.6573 203.953 59.6573 203.593C59.6573 203.019 59.5064 202.558 59.2057 202.21C58.9049 201.863 58.5265 201.57 58.0693 201.331C57.6242 201.092 57.131 200.87 56.5896 200.666C56.0603 200.463 55.5671 200.218 55.11 199.93C54.6408 199.643 54.2373 199.302 53.9005 198.907C53.5637 198.5 53.3953 197.979 53.3953 197.345C53.3953 196.854 53.4859 196.405 53.6664 195.998C53.8589 195.591 54.1115 195.244 54.4243 194.956C54.7491 194.669 55.1276 194.448 55.5606 194.292C56.0057 194.125 56.4814 194.041 56.9866 194.041C57.3956 194.041 57.7621 194.082 58.0869 194.166C58.4237 194.25 58.7245 194.358 58.9891 194.489C59.2538 194.609 59.4888 194.747 59.6933 194.903C59.8979 195.046 60.0718 195.178 60.2162 195.298L59.5305 196.088C59.1576 195.765 58.7791 195.513 58.3941 195.334C58.0092 195.154 57.552 195.064 57.0227 195.064C56.6739 195.064 56.3426 195.118 56.0298 195.226C55.717 195.322 55.4468 195.471 55.2182 195.674C54.9897 195.866 54.8092 196.1 54.6769 196.375C54.5446 196.651 54.4779 196.955 54.4779 197.29C54.4779 197.769 54.6167 198.159 54.8934 198.458C55.1821 198.745 55.5431 199.002 55.9761 199.23C56.4092 199.445 56.8784 199.655 57.3836 199.859C57.8889 200.05 58.3701 200.283 58.8272 200.558C59.0919 200.726 59.338 200.912 59.5666 201.116C59.7951 201.307 59.9941 201.528 60.1625 201.779C60.343 202.019 60.4808 202.294 60.5771 202.605C60.6854 202.905 60.7399 203.234 60.7399 203.593C60.7399 204.096 60.6437 204.557 60.4512 204.976C60.2588 205.383 59.9941 205.736 59.6573 206.035C59.3325 206.323 58.9475 206.55 58.5024 206.718C58.0573 206.885 57.5761 206.969 57.0588 206.969C55.3506 206.969 53.9551 206.263 52.8724 204.85L53.6664 204.151ZM69.4847 195.244V199.337H73.9959V200.361H69.4847V205.766H75.4395V206.79H68.4021V194.22H75.2591V195.244H69.4847ZM83.01 194.22H83.7318L92.2128 204.688V194.22H93.2955V206.79H92.5737L84.0927 196.321V206.79H83.01V194.22ZM85.6621 192.837C85.6621 192.658 85.6927 192.478 85.7528 192.299C85.813 192.119 85.8972 191.964 86.0054 191.832C86.1137 191.688 86.2516 191.575 86.42 191.491C86.5884 191.395 86.7809 191.348 86.9974 191.348C87.226 191.348 87.437 191.389 87.6295 191.473C87.834 191.557 88.0264 191.652 88.2069 191.76C88.3873 191.856 88.5613 191.946 88.7297 192.03C88.8981 192.114 89.0666 192.155 89.235 192.155C89.4275 192.155 89.5783 192.095 89.6866 191.976C89.7948 191.844 89.8605 191.635 89.8846 191.348L90.6064 191.545C90.6064 191.724 90.5768 191.904 90.5166 192.083C90.4565 192.263 90.3723 192.425 90.264 192.569C90.1557 192.7 90.0169 192.813 89.8485 192.909C89.6801 192.993 89.4876 193.035 89.2711 193.035C89.0425 193.035 88.826 192.993 88.6215 192.909C88.429 192.825 88.243 192.736 88.0625 192.64C87.8821 192.533 87.7072 192.437 87.5388 192.353C87.3704 192.269 87.2019 192.227 87.0335 192.227C86.841 192.227 86.6911 192.293 86.5829 192.425C86.4746 192.545 86.408 192.748 86.3839 193.035L85.6621 192.837ZM100.784 200.505C100.784 199.595 100.94 198.745 101.253 197.955C101.578 197.165 102.017 196.483 102.571 195.908C103.136 195.322 103.803 194.867 104.573 194.544C105.343 194.209 106.173 194.041 107.063 194.041C107.953 194.041 108.784 194.209 109.553 194.544C110.323 194.867 110.985 195.322 111.538 195.908C112.104 196.483 112.543 197.165 112.856 197.955C113.181 198.745 113.343 199.595 113.343 200.505C113.343 201.427 113.181 202.282 112.856 203.072C112.543 203.85 112.104 204.533 111.538 205.119C110.985 205.694 110.323 206.149 109.553 206.484C108.784 206.808 107.953 206.969 107.063 206.969C106.173 206.969 105.343 206.808 104.573 206.484C103.803 206.149 103.136 205.694 102.571 205.119C102.017 204.533 101.578 203.85 101.253 203.072C100.94 202.282 100.784 201.427 100.784 200.505ZM101.866 200.505C101.866 201.247 101.993 201.953 102.246 202.624C102.498 203.282 102.853 203.857 103.31 204.348C103.779 204.838 104.332 205.227 104.97 205.514C105.608 205.802 106.305 205.945 107.063 205.945C107.821 205.945 108.519 205.802 109.156 205.514C109.794 205.227 110.342 204.838 110.799 204.348C111.268 203.857 111.629 203.282 111.882 202.624C112.134 201.953 112.26 201.247 112.26 200.505C112.26 199.763 112.134 199.062 111.882 198.404C111.629 197.745 111.268 197.171 110.799 196.68C110.342 196.177 109.794 195.782 109.156 195.495C108.519 195.208 107.821 195.064 107.063 195.064C106.305 195.064 105.608 195.208 104.97 195.495C104.332 195.782 103.779 196.177 103.31 196.68C102.853 197.171 102.498 197.745 102.246 198.404C101.993 199.062 101.866 199.763 101.866 200.505ZM135.012 194.22L140.462 206.79H139.379L137.719 203H131.584L129.924 206.79H128.841L134.291 194.22H135.012ZM132.017 201.977H137.268L134.651 195.908L132.017 201.977ZM155.499 206.79L150.627 200.361H148.498V206.79H147.415V194.22H151.727C152.305 194.22 152.786 194.292 153.171 194.436C153.568 194.58 153.905 194.777 154.181 195.028C154.494 195.303 154.735 195.639 154.903 196.034C155.084 196.417 155.174 196.836 155.174 197.29C155.174 197.745 155.084 198.171 154.903 198.566C154.735 198.949 154.494 199.278 154.181 199.553C153.917 199.792 153.604 199.984 153.243 200.128C152.894 200.259 152.456 200.337 151.926 200.361L156.798 206.79H155.499ZM151.674 199.337C152.131 199.337 152.492 199.29 152.756 199.194C153.021 199.098 153.243 198.966 153.424 198.799C153.628 198.607 153.791 198.386 153.911 198.135C154.032 197.872 154.092 197.59 154.092 197.29C154.092 196.991 154.032 196.716 153.911 196.465C153.791 196.201 153.628 195.974 153.424 195.782C153.243 195.615 153.021 195.483 152.756 195.387C152.492 195.291 152.131 195.244 151.674 195.244H148.498V199.337H151.674ZM162.581 200.505C162.581 199.595 162.737 198.745 163.05 197.955C163.375 197.165 163.814 196.483 164.367 195.908C164.932 195.322 165.601 194.867 166.37 194.544C167.14 194.209 167.97 194.041 168.861 194.041C169.751 194.041 170.581 194.209 171.351 194.544C172.121 194.867 172.782 195.322 173.336 195.908C173.901 196.483 174.34 197.165 174.653 197.955C174.977 198.745 175.14 199.595 175.14 200.505C175.14 201.331 175.008 202.109 174.743 202.839C174.479 203.558 174.111 204.204 173.642 204.779L175.501 206.79H174.13L172.939 205.478C172.397 205.945 171.777 206.311 171.08 206.574C170.394 206.837 169.655 206.969 168.861 206.969C167.97 206.969 167.14 206.808 166.37 206.484C165.601 206.149 164.932 205.694 164.367 205.119C163.814 204.533 163.375 203.85 163.05 203.072C162.737 202.282 162.581 201.427 162.581 200.505ZM169.744 200.505L172.92 203.97C173.281 203.503 173.558 202.977 173.75 202.39C173.955 201.791 174.058 201.163 174.058 200.505C174.058 199.763 173.931 199.062 173.678 198.404C173.426 197.745 173.065 197.171 172.595 196.68C172.138 196.177 171.591 195.782 170.954 195.495C170.316 195.208 169.619 195.064 168.861 195.064C168.103 195.064 167.405 195.208 166.767 195.495C166.13 195.782 165.576 196.177 165.107 196.68C164.65 197.171 164.295 197.745 164.042 198.404C163.79 199.062 163.664 199.763 163.664 200.505C163.664 201.247 163.79 201.953 164.042 202.624C164.295 203.282 164.65 203.857 165.107 204.348C165.576 204.838 166.13 205.227 166.767 205.514C167.405 205.802 168.103 205.945 168.861 205.945C169.534 205.945 170.153 205.838 170.719 205.622C171.284 205.395 171.789 205.09 172.235 204.707L169.005 201.151L169.744 200.505ZM187.776 206.969C186.862 206.969 186.025 206.766 185.268 206.359C184.51 205.94 183.908 205.383 183.463 204.688C183.222 204.317 183.036 203.905 182.904 203.45C182.784 202.995 182.724 202.432 182.724 201.762V194.22H183.806V201.815C183.806 202.366 183.854 202.821 183.951 203.18C184.047 203.539 184.185 203.862 184.365 204.151C184.714 204.7 185.19 205.138 185.791 205.461C186.393 205.784 187.054 205.945 187.776 205.945C188.498 205.945 189.16 205.784 189.761 205.461C190.363 205.138 190.837 204.7 191.186 204.151C191.367 203.862 191.505 203.539 191.602 203.18C191.698 202.821 191.746 202.366 191.746 201.815V194.22H192.829V201.762C192.829 202.432 192.762 202.995 192.63 203.45C192.509 203.905 192.329 204.317 192.088 204.688C191.643 205.383 191.042 205.94 190.284 206.359C189.526 206.766 188.69 206.969 187.776 206.969ZM201.124 194.22H202.206V206.79H201.124V194.22ZM217.73 194.22V195.244H214.121V206.79H213.038V195.244H209.429V194.22H217.73ZM226.03 195.244V199.337H230.541V200.361H226.03V205.766H231.985V206.79H224.948V194.22H231.805V195.244H226.03ZM249.385 204.652C249.108 205 248.789 205.317 248.428 205.605C248.079 205.88 247.694 206.119 247.273 206.323C246.852 206.526 246.407 206.682 245.938 206.79C245.469 206.909 244.994 206.969 244.513 206.969C243.574 206.969 242.708 206.808 241.914 206.484C241.12 206.161 240.435 205.712 239.857 205.138C239.28 204.563 238.828 203.881 238.503 203.091C238.179 202.301 238.017 201.439 238.017 200.505C238.017 199.595 238.173 198.751 238.486 197.973C238.811 197.183 239.256 196.5 239.821 195.926C240.386 195.339 241.054 194.879 241.824 194.544C242.593 194.209 243.436 194.041 244.35 194.041C245.252 194.041 246.101 194.209 246.895 194.544C247.701 194.879 248.38 195.351 248.933 195.962L248.194 196.698C247.749 196.208 247.195 195.813 246.534 195.513C245.872 195.214 245.144 195.064 244.35 195.064C243.592 195.064 242.889 195.208 242.239 195.495C241.601 195.77 241.048 196.16 240.579 196.662C240.122 197.153 239.761 197.728 239.496 198.386C239.232 199.045 239.099 199.751 239.099 200.505C239.099 201.271 239.232 201.983 239.496 202.641C239.761 203.3 240.127 203.874 240.597 204.365C241.078 204.856 241.643 205.245 242.293 205.533C242.954 205.808 243.676 205.945 244.458 205.945C245.324 205.945 246.118 205.76 246.84 205.389C247.574 205.018 248.163 204.545 248.608 203.97L249.385 204.652ZM263.809 194.22V195.244H260.2V206.79H259.117V195.244H255.508V194.22H263.809ZM269.488 200.505C269.488 199.595 269.644 198.745 269.957 197.955C270.282 197.165 270.721 196.483 271.275 195.908C271.84 195.322 272.507 194.867 273.277 194.544C274.047 194.209 274.877 194.041 275.767 194.041C276.657 194.041 277.487 194.209 278.257 194.544C279.027 194.867 279.689 195.322 280.242 195.908C280.808 196.483 281.247 197.165 281.56 197.955C281.885 198.745 282.047 199.595 282.047 200.505C282.047 201.427 281.885 202.282 281.56 203.072C281.247 203.85 280.808 204.533 280.242 205.119C279.689 205.694 279.027 206.149 278.257 206.484C277.487 206.808 276.657 206.969 275.767 206.969C274.877 206.969 274.047 206.808 273.277 206.484C272.507 206.149 271.84 205.694 271.275 205.119C270.721 204.533 270.282 203.85 269.957 203.072C269.644 202.282 269.488 201.427 269.488 200.505ZM270.57 200.505C270.57 201.247 270.697 201.953 270.95 202.624C271.202 203.282 271.557 203.857 272.014 204.348C272.483 204.838 273.036 205.227 273.674 205.514C274.312 205.802 275.009 205.945 275.767 205.945C276.525 205.945 277.223 205.802 277.86 205.514C278.498 205.227 279.046 204.838 279.503 204.348C279.972 203.857 280.333 203.282 280.586 202.624C280.838 201.953 280.964 201.247 280.964 200.505C280.964 199.763 280.838 199.062 280.586 198.404C280.333 197.745 279.972 197.171 279.503 196.68C279.046 196.177 278.498 195.782 277.86 195.495C277.223 195.208 276.525 195.064 275.767 195.064C275.009 195.064 274.312 195.208 273.674 195.495C273.036 195.782 272.483 196.177 272.014 196.68C271.557 197.171 271.202 197.745 270.95 198.404C270.697 199.062 270.57 199.763 270.57 200.505ZM289.528 194.22H290.25L298.731 204.688V194.22H299.814V206.79H299.092L290.611 196.321V206.79H289.528V194.22ZM308.295 194.22H309.378V206.79H308.295V194.22ZM328.239 204.652C327.962 205 327.644 205.317 327.283 205.605C326.934 205.88 326.549 206.119 326.128 206.323C325.707 206.526 325.262 206.682 324.793 206.79C324.323 206.909 323.848 206.969 323.367 206.969C322.428 206.969 321.562 206.808 320.768 206.484C319.974 206.161 319.288 205.712 318.711 205.138C318.134 204.563 317.683 203.881 317.358 203.091C317.033 202.301 316.87 201.439 316.87 200.505C316.87 199.595 317.027 198.751 317.34 197.973C317.664 197.183 318.11 196.5 318.675 195.926C319.24 195.339 319.908 194.879 320.678 194.544C321.448 194.209 322.29 194.041 323.205 194.041C324.107 194.041 324.955 194.209 325.749 194.544C326.555 194.879 327.235 195.351 327.788 195.962L327.048 196.698C326.603 196.208 326.049 195.813 325.388 195.513C324.726 195.214 323.999 195.064 323.205 195.064C322.447 195.064 321.743 195.208 321.093 195.495C320.455 195.77 319.902 196.16 319.433 196.662C318.976 197.153 318.615 197.728 318.35 198.386C318.085 199.045 317.953 199.751 317.953 200.505C317.953 201.271 318.085 201.983 318.35 202.641C318.615 203.3 318.982 203.874 319.451 204.365C319.933 204.856 320.498 205.245 321.148 205.533C321.809 205.808 322.531 205.945 323.313 205.945C324.179 205.945 324.973 205.76 325.695 205.389C326.429 205.018 327.018 204.545 327.463 203.97L328.239 204.652ZM334.457 200.505C334.457 199.595 334.614 198.745 334.926 197.955C335.251 197.165 335.69 196.483 336.243 195.908C336.809 195.322 337.477 194.867 338.247 194.544C339.017 194.209 339.847 194.041 340.737 194.041C341.627 194.041 342.457 194.209 343.227 194.544C343.997 194.867 344.659 195.322 345.212 195.908C345.777 196.483 346.216 197.165 346.529 197.955C346.854 198.745 347.016 199.595 347.016 200.505C347.016 201.427 346.854 202.282 346.529 203.072C346.216 203.85 345.777 204.533 345.212 205.119C344.659 205.694 343.997 206.149 343.227 206.484C342.457 206.808 341.627 206.969 340.737 206.969C339.847 206.969 339.017 206.808 338.247 206.484C337.477 206.149 336.809 205.694 336.243 205.119C335.69 204.533 335.251 203.85 334.926 203.072C334.614 202.282 334.457 201.427 334.457 200.505ZM335.54 200.505C335.54 201.247 335.666 201.953 335.918 202.624C336.171 203.282 336.526 203.857 336.983 204.348C337.453 204.838 338.006 205.227 338.644 205.514C339.281 205.802 339.979 205.945 340.737 205.945C341.495 205.945 342.192 205.802 342.83 205.514C343.468 205.227 344.014 204.838 344.472 204.348C344.941 203.857 345.302 203.282 345.554 202.624C345.807 201.953 345.934 201.247 345.934 200.505C345.934 199.763 345.807 199.062 345.554 198.404C345.302 197.745 344.941 197.171 344.472 196.68C344.014 196.177 343.468 195.782 342.83 195.495C342.192 195.208 341.495 195.064 340.737 195.064C339.979 195.064 339.281 195.208 338.644 195.495C338.006 195.782 337.453 196.177 336.983 196.68C336.526 197.171 336.171 197.745 335.918 198.404C335.666 199.062 335.54 199.763 335.54 200.505Z" fill="white"/>
</svg>
