<svg width="533" height="257" viewBox="0 0 533 257" fill="none" xmlns="http://www.w3.org/2000/svg">
    <path
        d="M436.782 40.776C403.736 62.9759 376.391 81.3683 375.972 81.6753C375.295 82.1973 375.038 83.6098 372.332 100.344C370.722 110.293 369.272 118.737 369.111 119.105C368.95 119.535 366.792 120.794 363.024 122.728L357.162 125.707L316.837 93.067C242.016 32.547 251.808 40.3768 252.742 41.8507C253.096 42.4341 262.855 58.1244 274.418 76.7011C285.981 95.2777 298.478 115.298 302.15 121.224L308.849 131.97L305.854 134.887C300.282 140.292 238.828 201.057 238.441 201.548C238.119 201.948 238.216 201.978 239.246 201.886C239.89 201.794 277.317 197.557 322.409 192.46L404.38 183.187L423.93 192.49C437.104 198.785 443.513 201.978 443.61 202.347C443.739 202.807 443.771 202.807 443.803 202.408C443.803 202.132 447.378 198.908 451.726 195.254L459.618 188.591L460.745 185.152C461.357 183.248 466.639 166.944 472.469 148.92C478.299 130.865 483.13 116.065 483.194 115.973C483.452 115.758 529.639 121.07 531.185 121.531C532.602 121.93 532.796 121.93 532.957 121.469C533.085 121.193 532.924 120.824 532.57 120.579C532.248 120.333 523.262 115.912 512.633 110.722C501.972 105.503 491.858 100.59 490.151 99.73C487.897 98.6553 486.995 98.0412 486.995 97.642C486.995 97.335 489.314 75.6878 492.148 49.5577C494.983 23.3969 497.302 1.65756 497.302 1.19699C497.302 0.767112 497.205 0.39865 497.076 0.429355C496.915 0.429355 469.796 18.6068 436.782 40.776ZM493.533 4.97373C493.211 5.46501 475.625 32.4242 454.464 64.8489C433.303 97.2736 415.814 123.741 415.621 123.68C415.395 123.619 410.242 119.78 404.122 115.144L393.01 106.7L381.995 112.657C375.907 115.942 370.883 118.583 370.818 118.522C370.657 118.337 376.519 82.8728 376.777 82.6579C377.292 82.228 493.855 4.08327 493.984 4.08327C494.081 4.08327 493.888 4.48244 493.533 4.97373ZM490.602 51.1544L485.578 97.7342H480.972H476.398L472.34 100.498L468.25 103.23L452.628 121.439C444.061 131.448 436.846 139.616 436.621 139.616C436.041 139.555 417.102 125.062 417.102 124.693C417.102 124.356 495.466 4.35962 495.595 4.48244C495.627 4.54385 493.404 25.5462 490.602 51.1544ZM300.797 90.5184L342.668 132.278L336.323 132.339C332.844 132.4 325.565 132.308 320.187 132.185L310.395 131.97L284.66 90.672C257.122 46.4565 258.056 47.9917 258.571 48.4523C258.765 48.6058 277.768 67.5509 300.797 90.5184ZM318.802 96.3217L355.938 126.351L350.527 129.483C347.564 131.234 344.987 132.585 344.858 132.523C344.601 132.37 270.102 58.1551 266.366 54.317C265.335 53.2423 268.105 55.3303 273.13 59.3834C277.832 63.1908 298.381 79.8023 318.802 96.3217ZM505.998 108.911C516.885 114.284 525.581 118.614 525.323 118.552C516.917 116.342 470.923 103.353 470.955 103.2C471.019 103.077 472.437 102.064 474.111 100.958L477.171 98.9317L481.681 99.0545L486.19 99.1466L505.998 108.911ZM472.34 105.84C474.466 106.424 474.917 106.639 474.852 107.13C474.788 107.867 444.705 195.991 444.576 195.868C444.415 195.714 443.191 169.523 443.352 169.277C443.578 168.94 442.483 167.681 435.461 160.096C431.661 156.013 428.536 152.543 428.536 152.389C428.536 152.267 437.555 141.55 448.602 128.624C461.357 113.67 468.861 105.103 469.216 105.134C469.506 105.134 470.923 105.472 472.34 105.84ZM498.815 112.503C510.539 115.758 520.073 118.491 520.009 118.552C519.88 118.706 474.691 113.67 474.466 113.517C474.337 113.394 475.786 108.542 476.398 107.007C476.559 106.608 476.881 106.332 477.107 106.424C477.3 106.485 487.092 109.218 498.815 112.503ZM396.875 117.631C397.97 119.351 400.128 122.298 401.642 124.11C403.156 125.952 405.668 129.023 407.246 130.926C411.852 136.515 423.029 148.797 440.26 167.251C440.711 167.742 440.969 168.08 440.776 167.988C440.615 167.896 427.184 162.952 410.95 157.026L381.447 146.187L382.381 142.318C386.697 124.263 390.401 111.889 392.173 109.433C392.72 108.727 392.72 108.727 393.783 111.582C394.395 113.148 395.78 115.881 396.875 117.631ZM389.725 111.398C388.114 114.96 383.927 129.852 381.157 141.704C380.674 143.884 380.159 145.634 380.062 145.634C379.933 145.634 372.429 142.871 363.314 139.493C354.231 136.116 346.726 133.352 346.598 133.352C346.114 133.352 357.42 127.088 364.602 123.373C368.95 121.101 376.455 117.14 381.318 114.499C386.182 111.859 390.208 109.771 390.272 109.832C390.337 109.893 390.079 110.6 389.725 111.398ZM415.588 125.461C429.438 135.993 436.041 141.213 435.848 141.458C434.946 142.902 427.57 151.161 427.28 151.069C426.604 150.854 414.751 137.774 408.503 130.343C400.289 120.548 398.808 118.552 396.489 114.192C394.685 110.753 394.202 109.525 394.814 109.771C394.975 109.801 404.315 116.894 415.588 125.461ZM478.363 115.298C480.521 115.512 481.809 115.789 481.745 116.004C481.681 116.157 476.431 132.4 470.053 152.052L458.523 187.823L451.888 193.412C448.248 196.482 445.22 198.969 445.188 198.908C445.092 198.816 473.371 115.666 473.693 115.144C473.886 114.868 474.273 114.868 478.363 115.298ZM333.618 133.843L344.987 134.058L361.768 140.261C370.979 143.669 378.387 146.555 378.259 146.648C378.001 146.77 245.463 198.294 243.208 199.092C242.274 199.461 239.729 201.978 278.605 163.628L309.364 133.291L315.806 133.475C319.349 133.567 327.369 133.751 333.618 133.843ZM409.759 157.916C425.895 163.842 439.294 168.786 439.519 168.909C439.777 169.062 434.141 171.519 425.058 175.203L410.177 181.252L327.562 190.587C282.148 195.745 244.947 199.921 244.915 199.89C244.851 199.86 379.644 147.415 380.32 147.2C380.384 147.17 393.622 152.021 409.759 157.916ZM441.903 170.413C441.903 170.72 442.193 176.892 442.547 184.169C442.901 191.416 443.191 198.017 443.191 198.816V200.29L424.993 191.6L406.763 182.941L408.76 182.665C410.21 182.481 414.687 180.792 426.088 176.155C434.527 172.716 441.516 169.922 441.677 169.891C441.806 169.891 441.903 170.137 441.903 170.413Z"
        fill="white" />
    <path
        d="M200.015 127.518C196.537 127.979 193.895 128.746 190.675 130.22C188.098 131.418 187.164 132.063 184.877 134.273C180.754 138.204 178.596 142.226 177.083 148.736L176.342 151.929V191.846V231.762L177.083 234.956C178.596 241.465 180.754 245.488 184.877 249.418C187.164 251.629 188.098 252.273 190.675 253.471C194.25 255.098 196.44 255.712 200.659 256.204C208.647 257.125 217.021 255.16 222.561 251.107C227.489 247.483 230.968 241.25 232.449 233.267C232.997 230.473 233.029 227.279 233.029 191.846C233.029 156.412 232.997 153.219 232.449 150.424C229.679 135.655 220.79 127.917 206.038 127.395C203.88 127.303 201.175 127.365 200.015 127.518ZM209.291 146.126C212.126 147.507 213.414 149.657 214.219 154.201C214.38 155.184 214.509 171.427 214.509 191.846C214.509 212.265 214.38 228.508 214.219 229.49C213.414 234.096 212.126 236.184 209.227 237.596C207.52 238.425 206.972 238.518 204.557 238.518C202.334 238.518 201.497 238.364 200.273 237.811C198.308 236.89 196.73 235.201 195.796 232.96L195.023 231.148V191.846V152.543L195.764 150.762C197.503 146.709 200.53 144.897 205.265 145.143C206.876 145.204 207.938 145.481 209.291 146.126Z"
        fill="#777676" />
    <path d="M0 166.36V201.825H12.5614H25.1227V166.36V130.896H12.5614H0V166.36Z" fill="white" />
    <path
        d="M67.4758 145.757C63.7074 146.586 60.4544 148.06 57.8132 150.087L56.0418 151.468V148.858V146.248H44.4467H32.8516L32.916 173.945L33.0126 201.671L45.0264 201.763L57.008 201.825V188.253C57.008 180.761 57.1691 173.73 57.3301 172.563C58.1353 167.404 61.1629 164.672 66.0909 164.672C68.3455 164.672 70.1491 165.439 71.2764 166.882C72.9191 169.032 72.9191 168.97 73.0479 185.92L73.1445 201.825H74.4007H75.6568L74.5617 203.606C71.6952 208.181 70.439 212.848 70.4068 218.866C70.3746 227.832 73.209 234.526 79.4574 240.237C83.3225 243.799 87.6384 246.071 93.6614 247.637C97.1078 248.558 107.286 248.65 111.441 247.791C117.077 246.624 123.873 244.106 126.901 242.049L127.867 241.404V229.429V217.484H119.332H110.796V224.7V231.885L109.154 232.346C103.356 234.004 97.5587 232.837 94.0802 229.306C91.3424 226.543 90.1829 223.503 90.1829 219.02C90.1829 211.282 94.3378 206.277 101.714 205.202C106.835 204.435 111.569 206.031 115.531 209.777C116.24 210.484 116.948 211.036 117.045 211.036C117.335 211.036 129.477 200.535 129.477 200.29C129.477 200.167 129.188 199.829 128.833 199.522C128.221 198.969 128.189 198.57 128.189 186.81C128.189 180.116 128.35 173.73 128.511 172.563C129.316 167.404 132.344 164.672 137.272 164.672C139.527 164.672 141.33 165.439 142.458 166.882C144.1 169.032 144.1 168.97 144.229 185.95L144.326 201.825L156.307 201.763L168.289 201.671V183.095C168.289 164.61 168.289 164.487 167.516 161.662C166.485 157.64 164.649 154.324 162.105 151.745C159.528 149.165 157.273 147.814 153.28 146.494C150.316 145.511 150.123 145.481 144.777 145.481C140.364 145.481 138.915 145.604 137.369 146.033C134.244 146.955 131.056 148.49 129.091 150.025L127.223 151.468V148.858V146.248H115.628H104.033V167.896V189.543H101.649C100.361 189.543 98.847 189.635 98.2995 189.727L97.3332 189.911L97.2044 177.076C97.0756 164.364 97.0433 164.18 96.2059 161.233C95.1108 157.302 93.4038 154.262 90.8593 151.714C88.347 149.135 86.0602 147.814 82.0985 146.525C79.2964 145.604 78.6844 145.511 74.2396 145.45C70.9544 145.358 68.7964 145.481 67.4758 145.757Z"
        fill="white" />
    <path
        d="M346.242 222.397V249.725H354.423H362.636L362.733 238.733L362.83 227.771L363.667 226.051C364.762 223.871 366.276 222.889 368.659 222.858C370.592 222.858 371.784 223.503 372.814 225.192C373.426 226.174 373.458 226.88 373.555 237.965L373.652 249.725H381.865H390.078L389.981 235.508L389.885 221.323L388.983 218.805C387.888 215.734 385.794 212.94 383.379 211.313C378.064 207.782 369.529 207.874 364.279 211.466L362.669 212.572V203.821V195.07H354.455H346.242V222.397Z"
        fill="white" />
    <path
        d="M315.001 205.97V211.651H312.263H309.525V217.792V223.933H312.263H315.001V230.749C315.001 238.425 315.323 240.329 316.998 243.338C318.028 245.181 320.444 247.545 322.216 248.405C325.63 250.093 330.59 250.83 335.163 250.339C337.805 250.063 340.768 249.295 341.959 248.558C342.282 248.374 341.895 246.9 340.446 242.571C339.351 239.408 338.384 236.829 338.255 236.829C338.127 236.86 337.676 237.044 337.225 237.289C336.098 237.903 333.682 237.873 332.844 237.197C331.556 236.215 331.427 235.539 331.427 229.644V223.933H335.453H339.479V217.792V211.651H335.453H331.427V205.97V200.29H323.214H315.001V205.97Z"
        fill="white" />
    <path
        d="M162.975 202.592C159.883 203.268 157.596 204.22 155.342 205.878L153.312 207.321V205.202V203.053H144.455H135.598V225.161V247.269H144.906H154.246L154.343 235.662L154.44 224.086L155.342 222.336C156.952 219.204 160.076 217.884 165.262 218.16L168.128 218.344L168.064 210.299L167.967 202.285L166.518 202.224C165.713 202.193 164.134 202.378 162.975 202.592Z"
        fill="white" />
    <path
        d="M237.377 209.716C237.377 209.839 239.986 217.546 243.142 226.85C246.331 236.123 249.391 245.088 249.938 246.716L250.937 249.725H258.957H266.977L269.586 241.957C271.035 237.719 272.356 233.728 272.549 233.144C272.742 232.561 272.967 231.977 273.096 231.855C273.225 231.732 274.61 235.662 276.221 240.606L279.087 249.571L287.139 249.664L295.191 249.725L301.923 230.012C305.627 219.143 308.719 210.085 308.783 209.87C308.912 209.593 307.366 209.501 301.73 209.501H294.483L290.972 220.125C289.04 225.959 287.397 230.565 287.333 230.319C287.236 230.104 285.722 225.345 283.918 219.787L280.698 209.655H273.612H266.558L263.144 219.849C261.276 225.468 259.665 230.074 259.569 230.074C259.472 230.074 258.409 227.003 257.217 223.226C256.026 219.48 254.544 214.844 253.932 212.94L252.805 209.501H245.075C240.855 209.501 237.377 209.593 237.377 209.716Z"
        fill="white" />
</svg>