<svg width="622" height="622" viewBox="0 0 622 622" fill="none" xmlns="http://www.w3.org/2000/svg">
<rect width="622" height="622" rx="311" fill="#F4F1E9"/>
<path d="M76.3667 165.313L254.554 321.064L289.668 226.128L523.055 117L507.991 303.598L533.911 304.408L559.867 349.411L507.178 336.91L404.275 490.161L389.211 478.505L369.232 504.388L330.652 456.849L63 441.848L140.796 322.755L164.205 321.909L76.3667 165.313Z" stroke="#252525" stroke-width="10" stroke-miterlimit="10"/>
<path d="M505.127 302.272H489.167L363.332 395.695L312.472 307.048L215.684 329.452L141.027 320.978L63 442.407L331.447 457.702H345.74L385.392 437.344L374.504 500.177L390.18 479.783L505.127 302.272Z" stroke="#252525" stroke-width="10" stroke-miterlimit="10"/>
<path d="M523.347 119L357.517 342.167L313.434 310.201L398.122 371.644L488.432 305.539L549.235 347.775L507.575 337.89L504.238 305.539L508.383 304.733L523.347 119Z" stroke="#252525" stroke-width="10" stroke-miterlimit="10"/>
<path d="M310.873 310.694L293.794 384.944L308.499 392.952L79.8438 440.438L344.11 458.07L383.017 438.506L313.708 396.394L308.499 392.952" stroke="#252525" stroke-width="10" stroke-miterlimit="10"/>
</svg>
