<svg width="66" height="62" viewBox="0 0 66 62" fill="none" xmlns="http://www.w3.org/2000/svg">
<rect width="66" height="62" rx="8" fill="#F4F1E9"/>
<rect x="6" y="17" width="54" height="39" rx="4" fill="#252525"/>
<rect x="23" y="21" width="7" height="7" rx="2.5" fill="#F4F1E9"/>
<rect x="23" y="32" width="7" height="7" rx="2.5" fill="#F4F1E9"/>
<rect x="35" y="31" width="9" height="9" rx="2.5" fill="#F4F1E9"/>
<rect x="49" y="32" width="7" height="7" rx="2.5" fill="#F4F1E9"/>
<rect x="11" y="32" width="7" height="7" rx="2.5" fill="#F4F1E9"/>
<rect x="11" y="43" width="7" height="7" rx="2.5" fill="#F4F1E9"/>
<rect x="23" y="43" width="7" height="7" rx="2.5" fill="#F4F1E9"/>
<rect x="36" y="43" width="7" height="7" rx="2.5" fill="#F4F1E9"/>
<rect x="36" y="21" width="7" height="7" rx="2.5" fill="#F4F1E9"/>
<rect x="49" y="21" width="7" height="7" rx="2.5" fill="#F4F1E9"/>
</svg>
