<svg width="24" height="24" viewBox="0 0 24 24" fill="none" xmlns="http://www.w3.org/2000/svg">
<path fill-rule="evenodd" clip-rule="evenodd" d="M16.8503 0H7.14973C3.20735 0 0 3.20735 0 7.14973V16.8503C0 20.7926 3.20735 24 7.14973 24H16.8503C20.7926 24 24 20.7926 24 16.8503V7.14973C24 3.20735 20.7926 0 16.8503 0ZM21.5856 16.8503C21.5856 19.4655 19.4655 21.5856 16.8503 21.5856H7.14973C4.5345 21.5856 2.4144 19.4655 2.4144 16.8503V7.14973C2.4144 4.53446 4.5345 2.4144 7.14973 2.4144H16.8503C19.4655 2.4144 21.5856 4.53446 21.5856 7.14973V16.8503ZM11.9984 5.79266C8.57576 5.79266 5.79119 8.57723 5.79119 11.9999C5.79119 15.4225 8.57576 18.2071 11.9984 18.2071C15.4211 18.2071 18.2057 15.4226 18.2057 11.9999C18.2057 8.57718 15.4211 5.79266 11.9984 5.79266ZM11.9984 15.7928C9.90369 15.7928 8.20559 14.0947 8.20559 11.9999C8.20559 9.90516 9.90374 8.20706 11.9984 8.20706C14.0932 8.20706 15.7913 9.90516 15.7913 11.9999C15.7913 14.0946 14.0932 15.7928 11.9984 15.7928ZM19.7052 5.83944C19.7052 6.6609 19.0393 7.32682 18.2179 7.32682C17.3964 7.32682 16.7305 6.6609 16.7305 5.83944C16.7305 5.01798 17.3964 4.35205 18.2179 4.35205C19.0393 4.35205 19.7052 5.01798 19.7052 5.83944Z" fill="#F4F1E9"/>
</svg>
