<svg width="22" height="25" viewBox="0 0 22 25" fill="none" xmlns="http://www.w3.org/2000/svg">
<path d="M17.0844 11.587C16.9749 11.5354 16.8637 11.4857 16.751 11.4382C16.5547 7.88258 14.5787 5.847 11.2609 5.82617C11.2458 5.82608 11.2309 5.82608 11.2159 5.82608C9.23134 5.82608 7.58085 6.65897 6.56498 8.17457L8.38971 9.40531C9.1486 8.27322 10.3396 8.03187 11.2167 8.03187C11.2269 8.03187 11.237 8.03187 11.2471 8.03197C12.3395 8.03881 13.1639 8.35112 13.6974 8.96016C14.0857 9.40355 14.3454 10.0163 14.474 10.7896C13.5054 10.6277 12.4579 10.5779 11.3381 10.6411C8.18361 10.8197 6.15566 12.6286 6.29186 15.1422C6.36098 16.4172 7.00699 17.5141 8.11082 18.2306C9.04409 18.8363 10.2461 19.1326 11.4953 19.0655C13.1451 18.9766 14.4393 18.3577 15.3422 17.226C16.0279 16.3667 16.4616 15.253 16.6531 13.8497C17.4393 14.3163 18.022 14.9302 18.3438 15.6682C18.891 16.9228 18.9229 18.9844 17.2121 20.6651C15.7131 22.1375 13.9113 22.7745 11.1882 22.7941C8.16765 22.7721 5.88322 21.8197 4.39794 19.9632C3.0071 18.2247 2.28831 15.7138 2.26149 12.5C2.28831 9.28617 3.0071 6.77521 4.39794 5.03681C5.88322 3.18033 8.16761 2.22786 11.1882 2.20579C14.2307 2.22803 16.555 3.18508 18.0971 5.05052C18.8533 5.96531 19.4234 7.11573 19.7992 8.45707L21.9375 7.89612C21.4819 6.24508 20.7651 4.82236 19.7896 3.64245C17.8126 1.25087 14.9212 0.0254099 11.1957 0H11.1808C7.46279 0.0253216 4.60374 1.25544 2.68303 3.65616C0.973857 5.7925 0.0922169 8.76507 0.0625927 12.4912L0.0625 12.5L0.0625927 12.5088C0.0922169 16.2349 0.973857 19.2076 2.68303 21.3439C4.60374 23.7445 7.46279 24.9747 11.1808 25H11.1957C14.5011 24.9775 16.8311 24.1266 18.7505 22.241C21.2617 19.7742 21.1861 16.6822 20.3584 14.784C19.7646 13.4228 18.6325 12.3172 17.0844 11.587ZM11.3772 16.8629C9.99467 16.9395 8.55834 16.3293 8.48752 15.0224C8.43503 14.0534 9.18889 12.9721 11.4621 12.8433C11.7224 12.8286 11.9778 12.8214 12.2288 12.8214C13.0545 12.8214 13.8269 12.9002 14.5292 13.0512C14.2673 16.2676 12.7308 16.7898 11.3772 16.8629Z" fill="#F4F1E9"/>
</svg>
