<svg width="22" height="22" viewBox="0 0 22 22" fill="none" xmlns="http://www.w3.org/2000/svg">
    <path
        d="M11.0007 20.1667C15.2709 20.1667 18.8591 17.2468 19.8778 13.2948M11.0007 20.1667C6.73044 20.1667 3.14219 17.2468 2.12355 13.2948M11.0007 20.1667C13.532 20.1667 15.584 16.0626 15.584 11C15.584 5.93743 13.532 1.83337 11.0007 1.83337M11.0007 20.1667C8.46934 20.1667 6.41732 16.0626 6.41732 11C6.41732 5.93743 8.46934 1.83337 11.0007 1.83337M19.8778 13.2948C20.0667 12.5613 20.1673 11.7924 20.1673 11C20.1673 9.36494 19.7392 7.82983 18.989 6.50069M19.8778 13.2948C17.2476 14.753 14.2211 15.5834 11.0007 15.5834C7.78021 15.5834 4.75369 14.753 2.12355 13.2948M2.12355 13.2948C1.93452 12.5613 1.83398 11.7924 1.83398 11C1.83398 9.36494 2.26209 7.82983 3.01233 6.50069M11.0007 1.83337C14.4281 1.83337 17.4163 3.71452 18.989 6.50069M11.0007 1.83337C7.57314 1.83337 4.585 3.71452 3.01233 6.50069M18.989 6.50069C16.8467 8.35229 14.0545 9.47226 11.0007 9.47226C7.94684 9.47226 5.15463 8.35229 3.01233 6.50069"
        stroke="#F4F1E9" stroke-width="1.66667" stroke-linecap="round" stroke-linejoin="round" />
</svg>