<svg width="190" height="220" viewBox="0 0 190 220" fill="none" xmlns="http://www.w3.org/2000/svg">
<path d="M50.1453 1.11323C52.308 1.59383 55.3118 3.27593 56.7536 4.59758C59.2767 7.12073 59.2767 7.84163 59.6372 65.5137L59.9976 123.907L63.2417 123.066C65.0439 122.705 70.691 120.663 75.7373 118.62L85.109 115.136V79.4511C85.2291 48.4524 85.4694 44.127 86.7911 46.7703C87.7523 48.4524 88.2329 50.1345 87.9926 50.4949C87.7523 50.9755 91.3568 55.3009 95.9225 60.1069L104.453 68.998L104.093 81.013C103.732 91.3459 103.252 94.1094 100.368 99.8766C95.0814 110.69 86.6709 117.539 72.7335 122.345C59.3969 126.91 56.0327 126.67 49.4244 120.903C43.8975 115.977 41.0139 109.489 39.4519 98.0744C38.0101 87.6213 39.4519 75.4861 43.0564 68.3973C45.5796 63.5913 52.308 57.1032 56.1528 55.7815C57.5946 55.4211 58.676 53.9793 58.676 52.6576C58.676 50.4949 58.0752 50.3748 52.4281 50.9755C25.9951 54.0994 14.2204 65.754 14.2204 88.5825C14.2204 99.8766 17.5846 107.807 25.2742 114.655C32.3631 121.143 47.6221 127.271 56.6334 127.271C62.8812 127.271 59.7573 129.193 45.8199 133.759C27.9175 139.646 19.0264 144.092 11.8174 150.82C4.60841 157.549 1.00391 165.719 0.162861 177.013C-1.39909 198.159 8.21292 210.295 31.6422 216.903C37.89 218.705 46.3005 219.065 92.318 219.306C145.544 219.786 146.386 219.666 137.134 216.062C131.247 213.899 130.165 209.934 129.685 189.509L129.324 170.525H116.829H104.333V193.954V217.383H79.9425C61.7999 217.383 53.9901 216.903 49.4244 215.581C34.7661 211.256 26.716 199.721 25.3944 181.218C23.9526 160.552 30.2004 150.58 51.7072 139.166C84.8687 121.383 95.562 113.213 101.81 100.598L104.333 95.431V129.914V164.517H116.949H129.565V124.267C129.565 102.159 129.925 84.0168 130.285 84.0168C130.646 84.0168 135.332 86.2996 140.498 88.9429C157.92 98.0744 165.009 108.768 164.768 126.189C164.648 148.297 155.637 160.913 136.894 165.238C132.568 166.32 122.115 166.92 107.697 166.92H85.109L84.8687 144.813L84.5082 122.825L72.2529 129.914L59.8775 137.123V147.096C59.8775 159.591 57.2342 164.397 49.0639 166.56C44.6184 167.641 53.2692 168.002 94.1202 168.002C123.197 168.122 147.827 167.641 152.153 166.92C169.695 164.037 180.989 157.188 186.516 146.134C189.399 140.367 190 137.844 190 129.794C190 117.178 187.237 109.609 180.028 101.679C172.698 93.6288 165.489 89.784 145.184 82.6951C129.324 77.1682 129.084 77.0481 133.77 76.3272C156.358 72.6025 170.536 62.8704 174.741 48.0919C177.024 40.5225 176.423 28.0268 173.66 21.2984C169.574 11.4461 159.482 3.99683 146.626 1.23338C139.297 -0.328572 43.537 -0.448722 50.1453 1.11323ZM133.409 4.47743C145.544 10.4849 151.192 21.2984 151.192 38.3598C151.192 54.8203 146.386 66.7152 137.494 72.1219C131.607 75.7264 129.565 75.1257 129.565 69.8391C129.565 59.5062 133.65 52.7778 140.018 52.7778C141.58 52.7778 142.781 52.177 142.781 51.5763C142.781 50.8554 133.169 50.3748 116.468 50.3748H90.1553L87.9926 45.2083C86.3105 41.2434 85.7097 35.8366 85.3493 20.5775L84.8687 0.872929L106.255 1.35353C125.84 1.71398 128.243 1.95428 133.409 4.47743ZM104.333 58.7853C104.333 62.0293 103.852 64.7928 103.252 64.7928C102.17 64.7928 92.318 54.58 92.318 53.3785C92.318 53.0181 95.0814 52.7778 98.3255 52.7778H104.333V58.7853Z" fill="white"/>
</svg>
