<svg width="431" height="431" viewBox="0 0 431 431" fill="none" xmlns="http://www.w3.org/2000/svg">
<circle cx="215.5" cy="215.5" r="215.5" fill="white"/>
<path d="M149.98 71.2251C111.052 76.016 84.375 101.465 76.3313 141.525C74.7361 149.407 74.227 154.266 74.0573 163.678C73.8537 173.294 74.1591 178.05 75.5167 186.035C79.7931 211.348 92.8938 237.409 114.344 263.164C128.463 280.085 148.758 299.928 175.774 323.168C191.081 336.318 220.507 360 221.559 360C221.763 360 239.445 344.744 260.895 326.124C282.345 307.471 303.082 289.463 306.985 286.065C323.005 272.168 332.474 262.586 339.941 252.597C349.851 239.38 356.062 224.226 357.657 209.412C358.166 204.689 358.098 195.753 357.521 190.758C355.451 172.988 348.629 157.936 337.327 146.18C331.116 139.724 326.297 136.088 319.034 132.385C308.852 127.22 299.009 124.876 287.436 124.876C280.75 124.876 275.15 125.589 268.565 127.254C255.125 130.686 244.366 136.734 235.067 146.112C232.963 148.218 230.587 150.868 229.738 151.99C228.89 153.145 228.109 154.062 227.974 154.096C227.838 154.096 227.295 153.281 226.82 152.295C221.695 142.17 213.142 132.351 204.318 126.439C188.909 116.143 166.848 113.187 149.234 119.099C128.734 125.963 116.109 142.85 113.631 166.634C112.749 175.06 113.733 188.244 115.837 197.078C118.858 209.514 127.071 223.58 141.428 240.875C154.291 256.335 172.89 274.988 189.181 288.817C199.43 297.515 219.251 312.635 219.998 312.33C220.507 312.126 229.874 303.359 243.314 290.55C254.65 279.745 285.094 249.607 287.198 247.059L288.624 245.394L280.478 237.477L272.333 229.56L254.345 247.466C237.137 264.625 218.64 282.531 218.165 282.531C217.86 282.531 210.359 276.517 204.793 271.862C179.881 250.932 154.562 223.207 144.211 205.504C139.018 196.67 137.185 190.384 136.438 179.24C135.963 171.833 136.676 164.799 138.509 159.193C142.649 146.417 153.578 139.146 168.579 139.146C180.221 139.146 190.81 143.393 197.801 150.868C206.626 160.314 212.327 173.667 213.006 186.409L213.21 190.044L215.484 190.248C216.74 190.384 221.797 191.166 226.718 191.981C231.639 192.797 235.746 193.374 235.882 193.238C235.983 193.102 236.357 191.709 236.662 190.146C238.088 183.283 241.991 174.313 246.063 168.537C251.799 160.484 260.114 154.266 269.685 150.936C280.444 147.165 291.644 146.825 301.521 149.917C316.828 154.708 328.639 167.755 333.051 184.676C334.205 189.127 334.544 191.302 334.917 196.33C336.275 215.969 329.012 232.414 310.685 251.238C305.118 256.946 299.043 262.552 289.642 270.639C286.282 273.527 269.618 287.968 252.648 302.748C235.644 317.494 221.525 329.794 221.22 329.998C220.778 330.372 219.658 329.59 214.092 325.105C185.006 301.627 157.142 276.347 141.292 258.985C104.433 218.688 91.1968 183.283 98.9351 145.636C99.4102 143.291 100.564 139.078 101.481 136.292C109.932 110.571 128.361 96.0967 155.479 93.9221C166.136 93.0387 175.741 95.4171 190.436 102.518C193.219 103.844 195.493 104.897 195.561 104.795C195.629 104.727 197.801 100.82 200.347 96.1646C202.926 91.4757 205.404 87.0247 205.879 86.2092L206.693 84.7482L201.161 82.098C191.353 77.3751 181.239 73.7055 173.229 71.9726C169.597 71.2251 168.24 71.0892 160.841 71.0213C156.259 70.9533 151.372 71.0552 149.98 71.2251Z" fill="#A61923"/>
</svg>
