<svg width="731" height="307" viewBox="0 0 731 307" fill="none" xmlns="http://www.w3.org/2000/svg">
<g clip-path="url(#clip0_3066_73)">
<mask id="mask0_3066_73" style="mask-type:luminance" maskUnits="userSpaceOnUse" x="0" y="0" width="731" height="307">
<path d="M731 0H0V307H731V0Z" fill="white"/>
</mask>
<g mask="url(#mask0_3066_73)">
<path d="M363 0.114208C343.23 2.54456 329.682 15.4547 325.597 35.7765C324.787 39.7754 324.528 42.2402 324.442 47.0147C324.339 51.8927 324.494 54.3058 325.183 58.3563C327.355 71.1975 334.008 84.4179 344.902 97.4832C352.072 106.067 362.38 116.133 376.1 127.923C383.874 134.594 398.818 146.607 399.352 146.607C399.455 146.607 408.436 138.868 419.329 129.423C430.223 119.96 440.754 110.824 442.736 109.101C450.872 102.051 455.681 97.1902 459.473 92.1226C464.506 85.4176 467.66 77.7302 468.47 70.2151C468.729 67.8192 468.694 63.286 468.401 60.7522C467.35 51.7375 463.885 44.1018 458.146 38.1379C454.991 34.863 452.544 33.0187 448.855 31.1399C443.684 28.52 438.686 27.3306 432.808 27.3306C429.412 27.3306 426.568 27.6926 423.225 28.5372C416.399 30.2781 410.935 33.3462 406.212 38.1035C405.143 39.1721 403.937 40.5166 403.506 41.0854C403.075 41.6714 402.679 42.1368 402.61 42.154C402.541 42.154 402.265 41.7404 402.024 41.2405C399.421 36.104 395.077 31.1227 390.596 28.1235C382.771 22.9009 371.567 21.4013 362.621 24.4004C352.21 27.8822 345.798 36.4488 344.54 48.5143C344.092 52.789 344.592 59.4767 345.66 63.9582C347.194 70.2668 351.366 77.4027 358.657 86.1761C365.189 94.0187 374.635 103.482 382.908 110.497C388.114 114.91 398.18 122.58 398.559 122.425C398.818 122.321 403.575 117.874 410.401 111.376C416.158 105.895 431.619 90.6058 432.687 89.3131L433.411 88.4685L429.275 84.4524L425.138 80.4363L416.002 89.5199C407.264 98.2244 397.87 107.308 397.628 107.308C397.473 107.308 393.664 104.257 390.837 101.896C378.186 91.2781 365.327 77.2131 360.07 68.2329C357.433 63.7514 356.502 60.5626 356.123 54.909C355.882 51.1515 356.244 47.5835 357.174 44.7395C359.277 38.2586 364.827 34.57 372.446 34.57C378.358 34.57 383.736 36.7245 387.286 40.5166C391.768 45.3083 394.664 52.0823 395.008 58.5459L395.112 60.3903L396.267 60.4937C396.904 60.5626 399.473 60.9591 401.972 61.3727C404.471 61.7864 406.557 62.0794 406.626 62.0105C406.678 61.9415 406.867 61.2348 407.022 60.442C407.746 56.9602 409.728 52.4098 411.797 49.4795C414.71 45.3945 418.933 42.2402 423.793 40.551C429.257 38.6378 434.945 38.4654 439.961 40.0339C447.735 42.4643 453.733 49.0831 455.974 57.6669C456.56 59.9249 456.732 61.028 456.922 63.579C457.611 73.5417 453.923 81.8842 444.615 91.4332C441.788 94.3289 438.703 97.1729 433.928 101.275C432.222 102.741 423.759 110.066 415.141 117.564C406.505 125.045 399.335 131.284 399.18 131.388C398.956 131.577 398.387 131.181 395.56 128.906C380.788 116.995 366.637 104.171 358.588 95.3631C339.869 74.9206 333.147 56.9602 337.077 37.8621C337.318 36.6728 337.904 34.5355 338.369 33.1221C342.661 20.0741 352.021 12.7313 365.793 11.6282C371.205 11.1801 376.083 12.3866 383.546 15.989C384.96 16.6613 386.114 17.1956 386.149 17.1439C386.183 17.1094 387.286 15.1272 388.579 12.7658C389.889 10.3872 391.147 8.12919 391.389 7.71551L391.802 6.97435L388.993 5.6299C384.012 3.23402 378.875 1.37249 374.807 0.493419C372.963 0.114216 372.273 0.0452722 368.516 0.0107992C366.189 -0.0236738 363.707 0.0280255 363 0.114208Z" fill="#A61923"/>
<path d="M285.092 139.3C284.851 139.334 284.075 139.455 283.368 139.558C280.955 139.92 278.094 141.006 276.129 142.35C274.198 143.66 272.251 145.936 271.13 148.142C270.182 150.055 269.872 151.555 269.872 154.278C269.872 156.191 269.941 156.967 270.234 158.001C271.32 161.965 274.198 165.378 278.111 167.326C280.576 168.567 282.955 169.119 286.385 169.291C296.365 169.791 303.725 164.775 305.172 156.484C306.62 148.142 301.518 141.385 292.435 139.61C291.107 139.351 286.005 139.127 285.092 139.3Z" fill="white"/>
<path d="M585.437 145.832C583.179 146.245 581.438 147.193 579.818 148.865C578.077 150.675 577.25 152.761 577.25 155.398C577.25 158.225 578.112 160.276 580.163 162.293C581.68 163.792 582.731 164.413 584.593 164.878C586.247 165.309 589.126 165.343 590.608 164.964C594.107 164.068 596.951 161.276 597.83 157.863C598.175 156.553 598.192 153.898 597.848 152.657C596.538 147.676 591.229 144.763 585.437 145.832Z" fill="white"/>
<path d="M639.474 148.935C635.424 149.487 631.391 150.986 628.65 152.934C625.134 155.433 622.255 159.398 620.859 163.655C619.877 166.654 619.618 168.533 619.532 173.101L619.446 177.289H613.689H607.932V183.839V190.389H613.706H619.48V218.485V246.58H627.581H635.682V218.485V190.389H645.162H654.643V183.839V177.289H644.973H635.303L635.389 173.704C635.458 170.826 635.545 169.878 635.838 168.792C636.768 165.258 639.078 163 642.525 162.225C644.111 161.863 647.024 161.863 648.73 162.225C650.23 162.535 652.247 163.293 653.574 164.052C654.074 164.345 654.522 164.534 654.574 164.5C654.608 164.448 655.66 161.725 656.901 158.415C658.641 153.744 659.09 152.383 658.917 152.262C656.263 150.469 653.005 149.383 648.782 148.866C646.817 148.608 641.508 148.66 639.474 148.935Z" fill="white"/>
<path d="M459.181 198.059V246.58H474.004H488.827V198.059V149.539H474.004H459.181V198.059Z" fill="white"/>
<path d="M0 200.817V246.58H15.1681H30.3362V235.29V223.983L33.7146 220.243C35.5589 218.192 37.1274 216.485 37.1964 216.468C37.2653 216.433 42.4018 223.138 48.6069 231.343C54.8121 239.548 59.9658 246.322 60.0864 246.425C60.2071 246.511 67.0328 246.563 78.0641 246.546L95.8522 246.494L76.7024 221.001C66.1709 206.971 57.5871 195.422 57.6216 195.319C57.6733 195.215 65.8607 186.149 75.8234 175.169C85.7861 164.207 93.9389 155.192 93.9389 155.14C93.9389 155.089 86.3893 155.054 77.1678 155.054H60.3967L45.5216 171.463C37.3343 180.495 30.5603 187.907 30.4741 187.942C30.4052 187.976 30.3362 180.599 30.3362 171.532V155.054H15.1681H0V200.817Z" fill="white"/>
<path d="M502.789 200.817V246.58H535.28H567.771L567.736 239.375L567.684 232.188L543.777 232.136L519.853 232.101V193.578V155.054H511.321H502.789V200.817Z" fill="white"/>
<path d="M318.703 169.016V179.013H313.79H308.878V189.786V200.558H313.79H318.703V211.28C318.703 217.261 318.789 222.707 318.875 223.569C319.737 231.291 322.478 237.083 327.097 240.944C331.492 244.598 336.887 246.718 344.127 247.631C346.712 247.976 353.779 247.907 356.537 247.545C360.777 246.976 364.086 246.097 366.741 244.839L368.154 244.167L366.81 240.237C366.069 238.082 364.5 233.532 363.345 230.119C362.173 226.706 361.173 223.845 361.105 223.776C361.036 223.69 360.432 223.897 359.777 224.241C358.088 225.086 356.658 225.414 354.641 225.448C353.124 225.448 352.797 225.396 351.952 225C350.59 224.379 349.659 223.466 349.004 222.139L348.436 220.984L348.384 210.78L348.332 200.558H355.675H363.001V189.786V179.013H355.675H348.35V169.016V159.019H333.526H318.703V169.016Z" fill="white"/>
<path d="M126.602 173.79C116.002 174.428 106.298 176.927 99.1963 180.874C98.3517 181.357 97.645 181.805 97.645 181.908C97.645 182.184 106.901 201.248 107.056 201.248C107.125 201.248 107.677 200.92 108.263 200.541C113.192 197.266 121.293 195.318 127.671 195.87C131.825 196.232 134.393 197.18 136.203 199.024C137.272 200.127 138.306 202.023 138.513 203.264L138.633 204.005H131.842C122.259 204.005 118.019 204.298 113.072 205.315C107.487 206.47 102.678 208.728 99.6444 211.641C95.094 216.037 93.1807 223.121 94.6286 230.239C96.3178 238.496 102.471 244.58 111.4 246.855C114.451 247.631 116.467 247.838 120.656 247.838C124.913 247.838 127.085 247.562 129.963 246.666C134.721 245.166 138.409 242.253 140.46 238.392L140.909 237.53L140.96 242.046L140.995 246.58H154.801H168.59L168.521 225.327C168.453 202.54 168.453 202.609 167.522 198.093C164.488 183.201 153.112 174.996 133.928 173.842C131.273 173.686 128.619 173.669 126.602 173.79ZM138.926 220.846V223.379L138.237 224.81C136.531 228.309 133.204 230.188 129.015 229.981C126.826 229.877 125.637 229.447 124.379 228.292C123.121 227.137 122.655 226.068 122.655 224.258C122.655 221.535 124.086 219.725 126.895 218.915C128.343 218.501 130.256 218.363 134.841 218.329L138.926 218.312V220.846Z" fill="white"/>
<path d="M226.574 173.772C221.317 174.186 217.197 175.289 214.043 177.133C212.768 177.875 211.337 178.978 210.165 180.098L209.424 180.805V177.926V175.048H195.376H181.328V223.482V271.917H196.152H210.975V256.921V241.925L212.543 243.115C218.611 247.717 228.591 249.182 237.898 246.838C249.154 243.977 257.858 235.772 261.547 224.517C263.029 219.983 263.46 216.898 263.46 210.814C263.46 204.798 263.029 201.816 261.478 197.111C257.6 185.304 247.809 176.616 235.813 174.358C232.814 173.79 229.263 173.566 226.574 173.772ZM225.609 197.386C229.78 198.783 232.469 202.282 233.313 207.418C233.675 209.659 233.555 213.658 233.038 215.709C232.624 217.415 231.641 219.466 230.59 220.828C227.539 224.775 221.61 225.982 216.853 223.638C214.043 222.241 211.923 219.466 210.94 215.898C210.596 214.588 210.544 214.054 210.544 210.9C210.544 206.866 210.734 205.763 211.837 203.402C213.647 199.506 216.18 197.628 220.627 196.869C221.679 196.68 224.333 196.955 225.609 197.386Z" fill="white"/>
<path d="M404.455 173.79C393.854 174.428 384.15 176.927 377.049 180.874C376.204 181.357 375.498 181.805 375.498 181.908C375.498 182.184 384.754 201.248 384.909 201.248C384.978 201.248 385.529 200.92 386.115 200.541C391.045 197.266 399.146 195.318 405.524 195.87C409.677 196.232 412.246 197.18 414.056 199.024C415.124 200.127 416.158 202.023 416.365 203.264L416.486 204.005H409.695C400.111 204.005 395.871 204.298 390.924 205.315C385.34 206.47 380.531 208.728 377.497 211.641C372.947 216.037 371.033 223.121 372.481 230.239C374.17 238.496 380.324 244.58 389.252 246.855C392.303 247.631 394.32 247.838 398.508 247.838C402.766 247.838 404.937 247.562 407.816 246.666C412.573 245.166 416.262 242.253 418.313 238.392L418.761 237.53L418.813 242.046L418.847 246.58H432.654H446.443L446.374 225.327C446.305 202.54 446.305 202.609 445.374 198.093C442.341 183.201 430.965 174.996 411.78 173.842C409.126 173.686 406.472 173.669 404.455 173.79ZM416.779 220.846V223.379L416.089 224.81C414.383 228.309 411.056 230.188 406.868 229.981C404.679 229.877 403.49 229.447 402.231 228.292C400.973 227.137 400.508 226.068 400.508 224.258C400.508 221.535 401.938 219.725 404.748 218.915C406.196 218.501 408.109 218.363 412.694 218.329L416.779 218.312V220.846Z" fill="white"/>
<path d="M272.854 210.814V246.58H287.677H302.5V210.814V175.049H287.677H272.854V210.814Z" fill="white"/>
<path d="M691.787 175.91C681.962 176.634 673.637 180.615 667.466 187.493C663.209 192.267 660.468 198.007 659.262 204.695C658.745 207.573 658.624 213.623 659.02 216.726C660.037 224.62 663.209 231.308 668.449 236.565C674.568 242.684 682.428 246.252 692.046 247.286C694.821 247.579 700.422 247.527 703.232 247.2C709.489 246.441 715.039 244.511 719.538 241.495C721.589 240.133 724.312 237.84 725.053 236.841C725.467 236.324 725.502 236.203 725.295 235.944C725.157 235.772 723.192 233.514 720.934 230.894C718.659 228.291 716.78 226.12 716.763 226.085C716.728 226.051 716.142 226.551 715.453 227.188C712.247 230.118 708.179 232.204 703.715 233.169C702.181 233.514 701.439 233.549 697.82 233.566C693.373 233.566 692.149 233.411 689.167 232.514C687.34 231.98 684.013 230.291 682.548 229.188C680.273 227.447 678.239 224.999 676.895 222.31C676.309 221.138 675.43 218.622 675.257 217.57L675.137 216.933H702.525H729.914L730.018 215.76C730.19 213.968 730.155 209.607 729.949 207.521C729.052 198.438 725.674 191.164 719.555 185.269C714.384 180.271 707.817 177.168 700.319 176.185C697.751 175.841 694.166 175.737 691.787 175.91ZM697.372 189.354C702.112 189.854 705.973 191.612 709.092 194.749C711.781 197.421 713.901 201.627 714.384 205.212L714.505 206.074H694.734H674.964L675.068 205.419C675.55 202.644 676.791 199.472 678.256 197.266C679.394 195.577 681.893 193.215 683.686 192.164C687.702 189.785 692.304 188.837 697.372 189.354Z" fill="white"/>
<path d="M579.664 211.676V246.58H587.765H595.866V211.676V176.772H587.765H579.664V211.676Z" fill="white"/>
<path d="M336.424 295.192C334.344 295.192 332.392 294.888 330.568 294.28C328.776 293.672 327.384 292.904 326.392 291.976L327.496 290.056C328.456 290.888 329.736 291.608 331.336 292.216C332.936 292.792 334.664 293.08 336.52 293.08C339.144 293.08 341.032 292.648 342.184 291.784C343.336 290.92 343.912 289.784 343.912 288.376C343.912 287.352 343.608 286.552 343 285.976C342.424 285.368 341.64 284.904 340.648 284.584C339.656 284.264 338.568 284.008 337.384 283.816C336.2 283.592 335.016 283.352 333.832 283.096C332.648 282.84 331.56 282.472 330.568 281.992C329.576 281.512 328.776 280.856 328.168 280.024C327.592 279.16 327.304 278.024 327.304 276.616C327.304 275.336 327.656 274.184 328.36 273.16C329.064 272.136 330.12 271.32 331.528 270.712C332.936 270.072 334.696 269.752 336.808 269.752C338.376 269.752 339.944 269.976 341.512 270.424C343.112 270.872 344.408 271.464 345.4 272.2L344.296 274.12C343.24 273.32 342.056 272.744 340.744 272.392C339.432 272.04 338.104 271.864 336.76 271.864C334.328 271.864 332.536 272.312 331.384 273.208C330.264 274.104 329.704 275.224 329.704 276.568C329.704 277.624 329.992 278.472 330.568 279.112C331.176 279.72 331.976 280.2 332.968 280.552C333.96 280.872 335.048 281.144 336.232 281.368C337.416 281.56 338.6 281.784 339.784 282.04C340.968 282.296 342.056 282.664 343.048 283.144C344.04 283.592 344.824 284.232 345.4 285.064C346.008 285.864 346.312 286.952 346.312 288.328C346.312 289.704 345.928 290.904 345.16 291.928C344.424 292.952 343.32 293.752 341.848 294.328C340.376 294.904 338.568 295.192 336.424 295.192ZM360.786 295.192C358.258 295.192 356.018 294.648 354.066 293.56C352.146 292.472 350.626 290.968 349.506 289.048C348.418 287.128 347.874 284.936 347.874 282.472C347.874 279.976 348.386 277.784 349.41 275.896C350.466 273.976 351.906 272.472 353.73 271.384C355.554 270.296 357.602 269.752 359.874 269.752C362.146 269.752 364.178 270.28 365.97 271.336C367.794 272.392 369.218 273.88 370.242 275.8C371.298 277.688 371.826 279.88 371.826 282.376C371.826 282.472 371.81 282.584 371.778 282.712C371.778 282.808 371.778 282.92 371.778 283.048H349.65V281.176H370.482L369.522 282.088C369.554 280.136 369.138 278.392 368.274 276.856C367.442 275.288 366.306 274.072 364.866 273.208C363.426 272.312 361.762 271.864 359.874 271.864C358.018 271.864 356.354 272.312 354.882 273.208C353.442 274.072 352.306 275.288 351.474 276.856C350.642 278.392 350.226 280.152 350.226 282.136V282.568C350.226 284.616 350.674 286.44 351.57 288.04C352.498 289.608 353.762 290.84 355.362 291.736C356.962 292.6 358.786 293.032 360.834 293.032C362.434 293.032 363.922 292.744 365.298 292.168C366.706 291.592 367.89 290.712 368.85 289.528L370.242 291.112C369.154 292.456 367.778 293.48 366.114 294.184C364.482 294.856 362.706 295.192 360.786 295.192ZM387.267 304.504C384.995 304.504 382.835 304.152 380.787 303.448C378.739 302.744 377.075 301.768 375.795 300.52L377.091 298.696C378.339 299.848 379.827 300.744 381.555 301.384C383.315 302.024 385.203 302.344 387.219 302.344C390.579 302.344 393.043 301.56 394.611 299.992C396.211 298.424 397.011 295.96 397.011 292.6V285.64L397.491 281.896L397.107 278.152V269.944H399.411V292.312C399.411 296.504 398.387 299.576 396.339 301.528C394.323 303.512 391.299 304.504 387.267 304.504ZM386.595 294.088C384.227 294.088 382.099 293.576 380.211 292.552C378.355 291.496 376.867 290.056 375.747 288.232C374.659 286.376 374.115 284.264 374.115 281.896C374.115 279.496 374.659 277.384 375.747 275.56C376.867 273.736 378.355 272.312 380.211 271.288C382.099 270.264 384.227 269.752 386.595 269.752C388.867 269.752 390.899 270.248 392.691 271.24C394.515 272.2 395.955 273.592 397.011 275.416C398.067 277.208 398.595 279.368 398.595 281.896C398.595 284.392 398.067 286.552 397.011 288.376C395.955 290.2 394.515 291.608 392.691 292.6C390.899 293.592 388.867 294.088 386.595 294.088ZM386.787 291.928C388.803 291.928 390.579 291.512 392.115 290.68C393.651 289.816 394.851 288.632 395.715 287.128C396.611 285.592 397.059 283.848 397.059 281.896C397.059 279.912 396.611 278.168 395.715 276.664C394.851 275.16 393.651 273.992 392.115 273.16C390.579 272.328 388.803 271.912 386.787 271.912C384.835 271.912 383.075 272.328 381.507 273.16C379.971 273.992 378.755 275.16 377.859 276.664C376.995 278.168 376.563 279.912 376.563 281.896C376.563 283.848 376.995 285.592 377.859 287.128C378.755 288.632 379.971 289.816 381.507 290.68C383.075 291.512 384.835 291.928 386.787 291.928ZM417.345 295.192C415.201 295.192 413.345 294.808 411.777 294.04C410.209 293.24 408.993 292.056 408.129 290.488C407.297 288.888 406.881 286.92 406.881 284.584V269.944H409.281V284.392C409.281 287.208 410.001 289.352 411.441 290.824C412.881 292.296 414.913 293.032 417.537 293.032C419.425 293.032 421.057 292.632 422.433 291.832C423.809 291.032 424.865 289.912 425.601 288.472C426.337 287 426.705 285.272 426.705 283.288V269.944H429.105V295H426.801V288.04L427.137 288.856C426.401 290.808 425.169 292.36 423.441 293.512C421.745 294.632 419.713 295.192 417.345 295.192ZM436.879 295V269.944H439.183V276.808L438.943 276.04C439.647 274.024 440.831 272.472 442.495 271.384C444.159 270.296 446.239 269.752 448.735 269.752V272.104C448.639 272.104 448.543 272.104 448.447 272.104C448.351 272.072 448.255 272.056 448.159 272.056C445.375 272.056 443.199 272.936 441.631 274.696C440.063 276.424 439.279 278.84 439.279 281.944V295H436.879ZM462.505 295.192C460.105 295.192 457.961 294.648 456.073 293.56C454.217 292.472 452.729 290.968 451.609 289.048C450.521 287.128 449.977 284.936 449.977 282.472C449.977 279.976 450.521 277.784 451.609 275.896C452.729 273.976 454.217 272.472 456.073 271.384C457.961 270.296 460.105 269.752 462.505 269.752C464.905 269.752 467.049 270.296 468.937 271.384C470.825 272.472 472.313 273.976 473.401 275.896C474.489 277.784 475.033 279.976 475.033 282.472C475.033 284.936 474.489 287.128 473.401 289.048C472.313 290.968 470.825 292.472 468.937 293.56C467.049 294.648 464.905 295.192 462.505 295.192ZM462.505 293.032C464.425 293.032 466.153 292.6 467.689 291.736C469.225 290.84 470.425 289.592 471.289 287.992C472.153 286.392 472.585 284.552 472.585 282.472C472.585 280.36 472.153 278.52 471.289 276.952C470.425 275.352 469.225 274.12 467.689 273.256C466.153 272.36 464.425 271.912 462.505 271.912C460.585 271.912 458.857 272.36 457.321 273.256C455.817 274.12 454.617 275.352 453.721 276.952C452.857 278.52 452.425 280.36 452.425 282.472C452.425 284.552 452.857 286.392 453.721 287.992C454.617 289.592 455.817 290.84 457.321 291.736C458.857 292.6 460.585 293.032 462.505 293.032ZM486.415 295.192C484.335 295.192 482.383 294.888 480.559 294.28C478.767 293.672 477.375 292.904 476.383 291.976L477.487 290.056C478.447 290.888 479.727 291.608 481.327 292.216C482.927 292.792 484.655 293.08 486.511 293.08C489.135 293.08 491.023 292.648 492.175 291.784C493.327 290.92 493.903 289.784 493.903 288.376C493.903 287.352 493.599 286.552 492.991 285.976C492.415 285.368 491.631 284.904 490.639 284.584C489.647 284.264 488.559 284.008 487.375 283.816C486.191 283.592 485.007 283.352 483.823 283.096C482.639 282.84 481.551 282.472 480.559 281.992C479.567 281.512 478.767 280.856 478.159 280.024C477.583 279.16 477.295 278.024 477.295 276.616C477.295 275.336 477.647 274.184 478.351 273.16C479.055 272.136 480.111 271.32 481.519 270.712C482.927 270.072 484.687 269.752 486.799 269.752C488.367 269.752 489.935 269.976 491.503 270.424C493.103 270.872 494.399 271.464 495.391 272.2L494.287 274.12C493.231 273.32 492.047 272.744 490.735 272.392C489.423 272.04 488.095 271.864 486.751 271.864C484.319 271.864 482.527 272.312 481.375 273.208C480.255 274.104 479.695 275.224 479.695 276.568C479.695 277.624 479.983 278.472 480.559 279.112C481.167 279.72 481.967 280.2 482.959 280.552C483.951 280.872 485.039 281.144 486.223 281.368C487.407 281.56 488.591 281.784 489.775 282.04C490.959 282.296 492.047 282.664 493.039 283.144C494.031 283.592 494.815 284.232 495.391 285.064C495.999 285.864 496.303 286.952 496.303 288.328C496.303 289.704 495.919 290.904 495.151 291.928C494.415 292.952 493.311 293.752 491.839 294.328C490.367 294.904 488.559 295.192 486.415 295.192ZM509.953 304.504C508.801 304.504 507.713 304.312 506.689 303.928C505.697 303.544 504.849 302.984 504.145 302.248L505.345 300.424C505.985 301.096 506.673 301.592 507.409 301.912C508.177 302.232 509.041 302.392 510.001 302.392C511.153 302.392 512.161 302.072 513.025 301.432C513.921 300.792 514.753 299.624 515.521 297.928L517.249 294.088L517.585 293.656L528.193 269.944H530.641L517.777 298.408C517.105 299.944 516.369 301.144 515.569 302.008C514.801 302.904 513.953 303.544 513.025 303.928C512.097 304.312 511.073 304.504 509.953 304.504ZM517.201 295.624L505.585 269.944H508.129L518.689 293.512L517.201 295.624ZM543.896 295V266.104C543.896 264.024 544.488 262.36 545.672 261.112C546.888 259.832 548.616 259.192 550.856 259.192C551.784 259.192 552.696 259.336 553.592 259.624C554.488 259.88 555.224 260.28 555.8 260.824L554.84 262.648C554.36 262.168 553.784 261.816 553.112 261.592C552.44 261.368 551.72 261.256 550.952 261.256C549.416 261.256 548.248 261.688 547.448 262.552C546.648 263.384 546.248 264.632 546.248 266.296V270.52L546.296 271.672V295H543.896ZM539.288 272.008V269.944H554.264V272.008H539.288ZM559.16 295V269.944H561.56V295H559.16ZM560.36 263.848C559.816 263.848 559.352 263.656 558.968 263.272C558.584 262.888 558.392 262.44 558.392 261.928C558.392 261.384 558.584 260.92 558.968 260.536C559.352 260.152 559.816 259.96 560.36 259.96C560.936 259.96 561.4 260.152 561.752 260.536C562.136 260.888 562.328 261.336 562.328 261.88C562.328 262.424 562.136 262.888 561.752 263.272C561.4 263.656 560.936 263.848 560.36 263.848ZM581.522 269.752C583.57 269.752 585.346 270.152 586.85 270.952C588.386 271.72 589.57 272.904 590.402 274.504C591.266 276.072 591.698 278.024 591.698 280.36V295H589.298V280.552C589.298 277.736 588.578 275.592 587.138 274.12C585.73 272.648 583.746 271.912 581.186 271.912C579.234 271.912 577.538 272.312 576.098 273.112C574.658 273.912 573.554 275.032 572.786 276.472C572.05 277.912 571.682 279.64 571.682 281.656V295H569.282V269.944H571.586V276.904L571.25 276.136C572.018 274.152 573.282 272.6 575.042 271.48C576.802 270.328 578.962 269.752 581.522 269.752ZM614.971 295V289.288L614.875 288.424V279.016C614.875 276.68 614.235 274.904 612.955 273.688C611.707 272.472 609.867 271.864 607.435 271.864C605.707 271.864 604.091 272.168 602.587 272.776C601.115 273.352 599.851 274.104 598.795 275.032L597.595 273.304C598.843 272.184 600.347 271.32 602.107 270.712C603.867 270.072 605.707 269.752 607.627 269.752C610.731 269.752 613.115 270.536 614.779 272.104C616.443 273.672 617.275 276.008 617.275 279.112V295H614.971ZM605.947 295.192C604.091 295.192 602.475 294.904 601.099 294.328C599.755 293.72 598.715 292.872 597.979 291.784C597.275 290.696 596.923 289.448 596.923 288.04C596.923 286.76 597.211 285.608 597.787 284.584C598.395 283.528 599.387 282.68 600.763 282.04C602.139 281.368 603.979 281.032 606.283 281.032H615.499V282.904H606.331C603.739 282.904 601.915 283.384 600.859 284.344C599.835 285.304 599.323 286.504 599.323 287.944C599.323 289.544 599.931 290.824 601.147 291.784C602.363 292.744 604.075 293.224 606.283 293.224C608.395 293.224 610.171 292.744 611.611 291.784C613.083 290.824 614.171 289.432 614.875 287.608L615.547 289.24C614.875 291.064 613.723 292.52 612.091 293.608C610.491 294.664 608.443 295.192 605.947 295.192ZM637.003 269.752C639.051 269.752 640.827 270.152 642.331 270.952C643.867 271.72 645.051 272.904 645.883 274.504C646.747 276.072 647.179 278.024 647.179 280.36V295H644.779V280.552C644.779 277.736 644.059 275.592 642.619 274.12C641.211 272.648 639.227 271.912 636.667 271.912C634.715 271.912 633.019 272.312 631.579 273.112C630.139 273.912 629.035 275.032 628.267 276.472C627.531 277.912 627.163 279.64 627.163 281.656V295H624.763V269.944H627.067V276.904L626.731 276.136C627.499 274.152 628.763 272.6 630.523 271.48C632.283 270.328 634.443 269.752 637.003 269.752ZM651.684 295V293.368L668.82 271.192L669.444 272.008H651.924V269.944H671.316V271.576L654.132 293.752L653.412 292.936H671.604V295H651.684ZM692.193 295V289.288L692.097 288.424V279.016C692.097 276.68 691.457 274.904 690.177 273.688C688.929 272.472 687.089 271.864 684.657 271.864C682.929 271.864 681.313 272.168 679.809 272.776C678.337 273.352 677.073 274.104 676.017 275.032L674.817 273.304C676.065 272.184 677.569 271.32 679.329 270.712C681.089 270.072 682.929 269.752 684.849 269.752C687.953 269.752 690.337 270.536 692.001 272.104C693.665 273.672 694.497 276.008 694.497 279.112V295H692.193ZM683.169 295.192C681.313 295.192 679.697 294.904 678.321 294.328C676.977 293.72 675.937 292.872 675.201 291.784C674.497 290.696 674.145 289.448 674.145 288.04C674.145 286.76 674.433 285.608 675.009 284.584C675.617 283.528 676.609 282.68 677.985 282.04C679.361 281.368 681.201 281.032 683.505 281.032H692.721V282.904H683.553C680.961 282.904 679.137 283.384 678.081 284.344C677.057 285.304 676.545 286.504 676.545 287.944C676.545 289.544 677.153 290.824 678.368 291.784C679.585 292.744 681.297 293.224 683.505 293.224C685.617 293.224 687.393 292.744 688.833 291.784C690.305 290.824 691.393 289.432 692.097 287.608L692.769 289.24C692.097 291.064 690.945 292.52 689.313 293.608C687.713 294.664 685.665 295.192 683.169 295.192ZM708.321 295.192C706.241 295.192 704.289 294.888 702.465 294.28C700.673 293.672 699.281 292.904 698.289 291.976L699.393 290.056C700.353 290.888 701.633 291.608 703.233 292.216C704.833 292.792 706.561 293.08 708.417 293.08C711.041 293.08 712.929 292.648 714.081 291.784C715.233 290.92 715.809 289.784 715.809 288.376C715.809 287.352 715.505 286.552 714.897 285.976C714.321 285.368 713.537 284.904 712.545 284.584C711.553 284.264 710.465 284.008 709.281 283.816C708.097 283.592 706.913 283.352 705.729 283.096C704.545 282.84 703.457 282.472 702.465 281.992C701.473 281.512 700.673 280.856 700.065 280.024C699.489 279.16 699.201 278.024 699.201 276.616C699.201 275.336 699.553 274.184 700.257 273.16C700.961 272.136 702.017 271.32 703.425 270.712C704.833 270.072 706.593 269.752 708.705 269.752C710.273 269.752 711.841 269.976 713.409 270.424C715.009 270.872 716.305 271.464 717.297 272.2L716.193 274.12C715.137 273.32 713.953 272.744 712.641 272.392C711.329 272.04 710.001 271.864 708.657 271.864C706.225 271.864 704.433 272.312 703.281 273.208C702.161 274.104 701.601 275.224 701.601 276.568C701.601 277.624 701.889 278.472 702.465 279.112C703.073 279.72 703.873 280.2 704.865 280.552C705.857 280.872 706.945 281.144 708.129 281.368C709.313 281.56 710.497 281.784 711.681 282.04C712.865 282.296 713.953 282.664 714.945 283.144C715.937 283.592 716.721 284.232 717.297 285.064C717.905 285.864 718.209 286.952 718.209 288.328C718.209 289.704 717.825 290.904 717.057 291.928C716.321 292.952 715.217 293.752 713.745 294.328C712.273 294.904 710.465 295.192 708.321 295.192Z" fill="white"/>
</g>
</g>
<defs>
<clipPath id="clip0_3066_73">
<rect width="731" height="307" fill="white"/>
</clipPath>
</defs>
</svg>
