<svg width="328" height="135" viewBox="0 0 328 135" fill="none" xmlns="http://www.w3.org/2000/svg">
<path d="M163.152 0.16217C154.288 1.25048 148.214 7.03164 146.382 16.1318C146.019 17.9224 145.903 19.0262 145.865 21.1642C145.818 23.3486 145.888 24.4291 146.197 26.243C147.171 31.9933 150.154 37.9134 155.038 43.764C158.253 47.6078 162.874 52.1154 169.025 57.3949C172.511 60.3819 179.211 65.7617 179.451 65.7617C179.497 65.7617 183.523 62.2961 188.407 58.0664C193.291 53.8289 198.013 49.7381 198.902 48.9663C202.55 45.8094 204.706 43.6328 206.406 41.3635C208.662 38.361 210.077 34.9186 210.44 31.5533C210.556 30.4804 210.54 28.4505 210.409 27.3159C209.938 23.2791 208.384 19.8598 205.811 17.1892C204.397 15.7227 203.299 14.8968 201.645 14.0555C199.327 12.8823 197.086 12.3497 194.451 12.3497C192.928 12.3497 191.653 12.5118 190.154 12.89C187.094 13.6696 184.644 15.0434 182.526 17.1738C182.047 17.6523 181.506 18.2543 181.313 18.5091C181.12 18.7715 180.942 18.9799 180.911 18.9876C180.88 18.9876 180.757 18.8024 180.648 18.5785C179.481 16.2784 177.534 14.0478 175.525 12.7047C172.016 10.366 166.993 9.69452 162.982 11.0375C158.314 12.5967 155.44 16.4328 154.875 21.8357C154.675 23.7499 154.899 26.7447 155.378 28.7515C156.066 31.5765 157.936 34.7719 161.205 38.7007C164.134 42.2126 168.369 46.45 172.078 49.5915C174.412 51.5674 178.925 55.0021 179.095 54.9327C179.211 54.8863 181.344 52.895 184.404 49.9851C186.985 47.5306 193.917 40.6843 194.397 40.1054L194.721 39.7272L192.866 37.9288L191.012 36.1304L186.916 40.198C182.998 44.0959 178.786 48.1635 178.678 48.1635C178.608 48.1635 176.9 46.7974 175.633 45.7399C169.961 40.9853 164.195 34.687 161.838 30.6657C160.656 28.6589 160.239 27.231 160.069 24.6993C159.961 23.0167 160.123 21.4189 160.54 20.1454C161.483 17.2432 163.971 15.5915 167.387 15.5915C170.038 15.5915 172.449 16.5563 174.041 18.2543C176.05 20.4001 177.349 23.4335 177.503 26.3279L177.549 27.1538L178.067 27.2001C178.353 27.231 179.505 27.4085 180.625 27.5937C181.746 27.779 182.681 27.9102 182.712 27.8793C182.735 27.8484 182.82 27.532 182.89 27.1769C183.214 25.6178 184.103 23.5801 185.03 22.268C186.336 20.4387 188.23 19.0262 190.409 18.2698C192.859 17.413 195.409 17.3358 197.658 18.0382C201.143 19.1265 203.832 22.0904 204.837 25.9342C205.1 26.9454 205.177 27.4394 205.262 28.5817C205.571 33.043 203.917 36.7787 199.744 41.0548C198.477 42.3515 197.094 43.6251 194.953 45.4621C194.188 46.1181 190.393 49.3985 186.529 52.756C182.658 56.1059 179.443 58.9 179.373 58.9463C179.273 59.0312 179.018 58.8537 177.75 57.8348C171.127 52.5013 164.783 46.7588 161.174 42.8146C152.781 33.6605 149.767 25.6178 151.529 17.0657C151.637 16.5331 151.9 15.576 152.109 14.9431C154.033 9.1002 158.229 5.81212 164.404 5.31813C166.831 5.11745 169.018 5.65775 172.364 7.27091C172.998 7.57193 173.515 7.81121 173.531 7.78805C173.546 7.77262 174.041 6.88499 174.621 5.82755C175.208 4.7624 175.772 3.75128 175.88 3.56603L176.066 3.23414L174.806 2.6321C172.573 1.55922 170.27 0.725624 168.446 0.331978C167.619 0.16217 167.31 0.131302 165.625 0.11586C164.582 0.100426 163.469 0.123581 163.152 0.16217Z" fill="#A61923"/>
<path d="M128.222 62.4891C128.113 62.5045 127.766 62.5585 127.449 62.6048C126.367 62.7669 125.084 63.2532 124.203 63.8552C123.337 64.4419 122.464 65.4607 121.962 66.4487C121.537 67.3054 121.398 67.9769 121.398 69.1964C121.398 70.0532 121.429 70.4005 121.56 70.8636C122.047 72.6389 123.337 74.1672 125.092 75.0394C126.197 75.5951 127.263 75.8421 128.801 75.9193C133.276 76.1431 136.576 73.897 137.225 70.1844C137.874 66.4487 135.586 63.423 131.514 62.628C130.919 62.5122 128.631 62.4119 128.222 62.4891Z" fill="white"/>
<path d="M262.882 65.4143C261.87 65.5996 261.089 66.0241 260.363 66.7728C259.582 67.5832 259.211 68.5172 259.211 69.6981C259.211 70.9639 259.598 71.8824 260.517 72.7855C261.198 73.457 261.669 73.7349 262.504 73.9433C263.245 74.1362 264.536 74.1517 265.201 73.9819C266.769 73.5805 268.045 72.3301 268.439 70.8018C268.593 70.2152 268.601 69.0266 268.446 68.4709C267.859 66.2402 265.479 64.9358 262.882 65.4143Z" fill="white"/>
<path d="M287.11 66.8037C285.293 67.0507 283.485 67.7222 282.256 68.5944C280.68 69.7136 279.389 71.4889 278.763 73.3953C278.323 74.7384 278.207 75.5797 278.168 77.6251L278.13 79.5007H275.548H272.967V82.4337V85.3667H275.556H278.145V97.9479V110.529H281.777H285.409V97.9479V85.3667H289.66H293.91V82.4337V79.5007H289.575H285.239L285.278 77.8952C285.309 76.6062 285.348 76.1817 285.479 75.6954C285.896 74.1132 286.932 73.102 288.477 72.7547C289.188 72.5926 290.494 72.5926 291.259 72.7547C291.932 72.8936 292.836 73.2332 293.431 73.5729C293.655 73.7041 293.856 73.789 293.879 73.7735C293.895 73.7504 294.366 72.5309 294.923 71.0489C295.703 68.9572 295.904 68.3474 295.827 68.2934C294.637 67.4907 293.176 67.0044 291.283 66.7729C290.402 66.6571 288.021 66.6802 287.11 66.8037Z" fill="white"/>
<path d="M206.274 88.8015V110.529H212.921H219.567V88.8015V67.0739H212.921H206.274V88.8015Z" fill="white"/>
<path d="M0.400269 90.0364V110.529H7.20092H14.0016V105.473V100.41L15.5163 98.7352C16.3432 97.8167 17.0464 97.0525 17.0773 97.0448C17.1082 97.0294 19.4112 100.032 22.1933 103.706C24.9753 107.38 27.286 110.413 27.3401 110.46C27.3942 110.498 30.4545 110.521 35.4004 110.514L43.3757 110.49L34.7899 99.0748C30.0681 92.7919 26.2196 87.6205 26.235 87.5742C26.2582 87.5279 29.929 83.468 34.3958 78.5513C38.8626 73.6423 42.5179 69.6056 42.5179 69.5824C42.5179 69.5592 39.1331 69.5438 34.9986 69.5438H27.4792L20.8099 76.8918C17.1391 80.9363 14.102 84.2553 14.0634 84.2707C14.0325 84.2861 14.0016 80.9826 14.0016 76.9227V69.5438H7.20092H0.400269V90.0364Z" fill="white"/>
<path d="M225.826 90.0364V110.529H240.394H254.961L254.945 107.303L254.922 104.084L244.204 104.061L233.477 104.046V86.7947V69.5438H229.652H225.826V90.0364Z" fill="white"/>
<path d="M143.291 75.7957V80.2724H141.089H138.886V85.0965V89.9206H141.089H143.291V94.7215C143.291 97.3998 143.33 99.8388 143.368 100.225C143.755 103.683 144.984 106.276 147.055 108.005C149.025 109.641 151.444 110.591 154.69 111C155.849 111.154 159.018 111.123 160.254 110.961C162.155 110.706 163.639 110.313 164.829 109.749L165.463 109.448L164.86 107.689C164.528 106.724 163.825 104.686 163.307 103.158C162.781 101.63 162.333 100.348 162.302 100.317C162.271 100.279 162.001 100.371 161.707 100.526C160.95 100.904 160.308 101.051 159.404 101.066C158.724 101.066 158.577 101.043 158.199 100.865C157.588 100.588 157.171 100.178 156.877 99.5841L156.622 99.067L156.599 94.4976L156.576 89.9206H159.868H163.152V85.0965V80.2724H159.868H156.583V75.7957V71.319H149.937H143.291V75.7957Z" fill="white"/>
<path d="M57.1626 77.9338C52.4098 78.2194 48.059 79.3386 44.875 81.1061C44.4964 81.3223 44.1795 81.5229 44.1795 81.5693C44.1795 81.6928 48.3294 90.2294 48.399 90.2294C48.4299 90.2294 48.6772 90.0828 48.94 89.913C51.1502 88.4464 54.7823 87.5743 57.6417 87.8212C59.5042 87.9833 60.6556 88.4079 61.4671 89.2337C61.9462 89.7277 62.4099 90.5768 62.5026 91.1325L62.5567 91.4644H59.5119C55.2151 91.4644 53.314 91.5956 51.0961 92.051C48.5922 92.5681 46.4361 93.5792 45.076 94.8837C43.0358 96.8519 42.1779 100.024 42.8271 103.212C43.5844 106.909 46.3433 109.634 50.3465 110.653C51.7143 111 52.6185 111.093 54.4964 111.093C56.4052 111.093 57.3789 110.969 58.6695 110.568C60.8025 109.896 62.4563 108.592 63.3759 106.863L63.5768 106.477L63.6 108.499L63.6155 110.529H69.8056H75.988L75.9571 101.012C75.9262 90.8083 75.9262 90.8392 75.5089 88.8169C74.1487 82.1481 69.0482 78.4741 60.447 77.957C59.2569 77.8875 58.0667 77.8798 57.1626 77.9338ZM62.6881 99.0054V100.14L62.379 100.781C61.6139 102.347 60.1224 103.189 58.2445 103.096C57.263 103.05 56.7298 102.857 56.1657 102.34C55.6015 101.823 55.3928 101.344 55.3928 100.534C55.3928 99.3141 56.0343 98.5037 57.2939 98.1409C57.9431 97.9556 58.8009 97.8939 60.8566 97.8785L62.6881 97.8707V99.0054Z" fill="white"/>
<path d="M101.985 77.9261C99.628 78.1113 97.781 78.6053 96.3667 79.4312C95.7949 79.7631 95.1534 80.2571 94.6279 80.7588L94.2956 81.0752V79.7863V78.4973H87.9973H81.699V100.186V121.875H88.3451H94.9912V115.16V108.445L95.6944 108.978C98.4147 111.038 102.889 111.695 107.062 110.645C112.109 109.364 116.011 105.69 117.665 100.649C118.33 98.6194 118.523 97.2378 118.523 94.5132C118.523 91.8194 118.33 90.4841 117.634 88.3769C115.895 83.0898 111.506 79.1996 106.127 78.1885C104.783 77.9338 103.191 77.8335 101.985 77.9261ZM101.552 88.5004C103.422 89.1256 104.628 90.6925 105.007 92.9926C105.169 93.996 105.115 95.7867 104.883 96.7052C104.698 97.4693 104.257 98.3878 103.786 98.9976C102.418 100.765 99.7593 101.305 97.6264 100.256C96.3667 99.6305 95.4162 98.3878 94.9757 96.7901C94.8211 96.2035 94.798 95.9642 94.798 94.5517C94.798 92.7456 94.883 92.2516 95.3776 91.1942C96.189 89.4498 97.325 88.6085 99.3188 88.2689C99.7903 88.184 100.98 88.3075 101.552 88.5004Z" fill="white"/>
<path d="M181.738 77.9338C176.985 78.2194 172.634 79.3386 169.45 81.1061C169.072 81.3223 168.755 81.5229 168.755 81.5693C168.755 81.6928 172.905 90.2294 172.974 90.2294C173.005 90.2294 173.253 90.0828 173.515 89.913C175.726 88.4464 179.358 87.5743 182.217 87.8212C184.08 87.9833 185.231 88.4079 186.043 89.2337C186.522 89.7277 186.985 90.5768 187.078 91.1325L187.132 91.4644H184.087C179.791 91.4644 177.889 91.5956 175.672 92.051C173.168 92.5681 171.012 93.5792 169.651 94.8837C167.611 96.8519 166.753 100.024 167.403 103.212C168.16 106.909 170.919 109.634 174.922 110.653C176.29 111 177.194 111.093 179.072 111.093C180.981 111.093 181.954 110.969 183.245 110.568C185.378 109.896 187.032 108.592 187.951 106.863L188.152 106.477L188.175 108.499L188.191 110.529H194.381H200.563L200.533 101.012C200.502 90.8083 200.502 90.8392 200.084 88.8169C198.724 82.1481 193.624 78.4741 185.022 77.957C183.832 77.8875 182.642 77.8798 181.738 77.9338ZM187.264 99.0054V100.14L186.954 100.781C186.189 102.347 184.698 103.189 182.82 103.096C181.838 103.05 181.305 102.857 180.741 102.34C180.177 101.823 179.968 101.344 179.968 100.534C179.968 99.3141 180.61 98.5037 181.869 98.1409C182.519 97.9556 183.376 97.8939 185.432 97.8785L187.264 97.8707V99.0054Z" fill="white"/>
<path d="M122.735 94.5132V110.529H129.381H136.027V94.5132V78.4973H129.381H122.735V94.5132Z" fill="white"/>
<path d="M310.564 78.8831C306.159 79.2073 302.426 80.9903 299.66 84.07C297.751 86.208 296.522 88.7783 295.981 91.773C295.749 93.062 295.695 95.7712 295.873 97.1606C296.329 100.696 297.751 103.69 300.1 106.045C302.844 108.785 306.368 110.382 310.68 110.845C311.924 110.977 314.436 110.954 315.695 110.807C318.501 110.467 320.989 109.603 323.006 108.252C323.926 107.642 325.147 106.616 325.479 106.168C325.665 105.936 325.68 105.882 325.587 105.767C325.525 105.689 324.644 104.678 323.632 103.505C322.612 102.34 321.77 101.367 321.762 101.352C321.746 101.336 321.484 101.56 321.175 101.846C319.737 103.158 317.913 104.092 315.912 104.524C315.224 104.678 314.892 104.694 313.269 104.702C311.275 104.702 310.726 104.632 309.389 104.231C308.57 103.991 307.079 103.235 306.422 102.741C305.402 101.961 304.49 100.865 303.887 99.6613C303.624 99.1365 303.23 98.0096 303.153 97.5388L303.099 97.2532H315.379H327.658L327.705 96.7283C327.782 95.9256 327.767 93.9728 327.674 93.0389C327.272 88.9712 325.757 85.714 323.014 83.0743C320.695 80.8359 317.751 79.4466 314.389 79.0066C313.238 78.8523 311.63 78.806 310.564 78.8831ZM313.068 84.9036C315.193 85.1274 316.924 85.9147 318.323 87.3195C319.528 88.5158 320.479 90.3991 320.695 92.0046L320.75 92.3905H311.885H303.021L303.068 92.0972C303.284 90.8545 303.841 89.4343 304.498 88.4464C305.008 87.6899 306.128 86.6325 306.932 86.1617C308.732 85.0965 310.796 84.672 313.068 84.9036Z" fill="white"/>
<path d="M260.293 94.8991V110.529H263.926H267.558V94.8991V79.2691H263.926H260.293V94.8991Z" fill="white"/>
<path d="M230.927 116.403C228.33 116.696 226.707 118.417 227.055 120.509C227.179 121.25 227.372 121.651 227.82 122.099C228.516 122.794 229.35 123.11 231.661 123.573C233.871 124.006 234.536 124.229 235.1 124.708C235.471 125.017 235.641 125.441 235.641 126.089C235.641 127.232 234.93 128.011 233.616 128.32C231.591 128.783 229.142 128.336 227.457 127.178C227.186 126.993 227.109 126.969 227.055 127.054C227.016 127.116 226.885 127.34 226.754 127.564L226.514 127.965L226.846 128.212C227.032 128.343 227.503 128.613 227.89 128.799C230.34 129.964 233.918 129.887 235.633 128.629C236.166 128.235 236.406 127.942 236.7 127.317C236.893 126.9 236.916 126.769 236.916 126.005C236.916 125.248 236.893 125.109 236.715 124.731C236.174 123.589 235.131 123.048 232.457 122.531C231.676 122.385 230.78 122.192 230.463 122.099C229.312 121.783 228.578 121.227 228.377 120.517C228.253 120.069 228.315 119.367 228.516 118.965C228.74 118.533 229.381 117.977 229.876 117.792C231.506 117.182 234.289 117.522 235.656 118.487C235.85 118.626 235.904 118.641 235.958 118.549C235.996 118.487 236.128 118.263 236.259 118.039L236.491 117.638L236.259 117.476C235.602 117.013 234.134 116.534 232.897 116.395C232.109 116.31 231.754 116.31 230.927 116.403Z" fill="white"/>
<path d="M244.412 116.395C241.607 116.835 239.551 118.896 239.111 121.721C238.979 122.57 239.064 124.245 239.265 124.955C239.783 126.722 241.004 128.173 242.635 128.945C243.477 129.339 244.057 129.501 245.038 129.594C247.117 129.787 249.25 129.092 250.394 127.857L250.718 127.502L250.355 127.085L250 126.661L249.505 127.116C248.918 127.664 247.975 128.158 247.194 128.32C246.476 128.474 245.054 128.467 244.35 128.312C242.527 127.911 240.942 126.414 240.479 124.646C240.417 124.407 240.347 124.013 240.316 123.774L240.262 123.342L245.888 123.326L251.522 123.303L251.507 122.523C251.445 120.084 250.162 117.993 248.122 117.012C247.697 116.804 247.109 116.588 246.808 116.518C246.097 116.364 244.992 116.31 244.412 116.395ZM246.847 117.699C248.593 118.247 249.984 119.907 250.231 121.752L250.301 122.261H245.286H240.27L240.316 121.968C240.595 120.324 241.313 119.112 242.473 118.34C243.098 117.923 243.694 117.668 244.32 117.553C244.945 117.445 246.267 117.522 246.847 117.699Z" fill="white"/>
<path d="M259.482 116.403C257.998 116.596 256.661 117.252 255.68 118.263C254.513 119.467 253.956 120.887 253.956 122.686C253.956 124.499 254.505 125.897 255.718 127.147C256.862 128.328 258.315 128.953 260.1 129.03C262.403 129.131 264.296 128.297 265.533 126.622L265.873 126.159L265.834 127.934C265.796 129.856 265.742 130.211 265.316 131.122C264.884 132.048 263.949 132.789 262.805 133.106C262.102 133.299 260.131 133.345 259.235 133.19C257.998 132.974 256.777 132.45 255.888 131.747C255.664 131.57 255.463 131.462 255.432 131.5C255.409 131.539 255.278 131.724 255.146 131.909C255.015 132.102 254.884 132.295 254.86 132.349C254.791 132.457 255.51 133.028 256.205 133.407C256.893 133.785 258.184 134.194 259.134 134.348C260.239 134.526 262.233 134.464 263.114 134.232C264.126 133.97 264.953 133.515 265.579 132.882C266.213 132.249 266.545 131.678 266.808 130.751C267.148 129.586 267.171 129.061 267.171 122.585V116.472H266.553H265.935L265.919 117.877L265.896 119.282L265.672 118.942C265.131 118.124 264.219 117.36 263.276 116.935C262.233 116.465 260.664 116.241 259.482 116.403ZM262.04 117.669C263.856 118.078 265.27 119.467 265.742 121.296C265.896 121.906 265.896 123.465 265.742 124.075C265.401 125.426 264.451 126.645 263.269 127.255C262.31 127.749 261.831 127.849 260.525 127.849C259.528 127.849 259.335 127.826 258.786 127.641C257.187 127.116 256.082 126.043 255.517 124.484C255.324 123.967 255.309 123.828 255.309 122.724C255.309 121.698 255.332 121.451 255.479 120.988C255.966 119.452 257.171 118.278 258.809 117.746C259.66 117.468 261.012 117.437 262.04 117.669Z" fill="white"/>
<path d="M294.451 116.403C292.751 116.626 291.383 117.491 290.657 118.803L290.433 119.212V117.838V116.472H289.814H289.196V122.994V129.516H289.853H290.51V125.703C290.51 121.358 290.541 121.041 291.058 119.969C291.769 118.487 293.037 117.684 294.807 117.599L295.417 117.568V116.966V116.356L295.185 116.349C295.062 116.341 294.729 116.364 294.451 116.403Z" fill="white"/>
<path d="M302.929 116.403C300.386 116.696 298.261 118.518 297.542 121.026C297.303 121.852 297.241 123.535 297.426 124.43C297.828 126.429 299.08 128.088 300.858 128.976C302.11 129.601 304.003 129.794 305.464 129.447C308.037 128.837 309.869 126.83 310.301 124.16C310.433 123.342 310.355 121.775 310.147 121.049C309.397 118.44 307.372 116.727 304.652 116.395C303.926 116.31 303.702 116.31 302.929 116.403ZM305.263 117.676C307.141 118.155 308.516 119.644 308.957 121.682C309.103 122.361 309.057 124.021 308.872 124.685C308.362 126.529 306.971 127.896 305.17 128.32C304.536 128.467 303.13 128.467 302.488 128.312C301.607 128.112 300.896 127.703 300.201 127.016C299.505 126.313 299.196 125.827 298.887 124.924C298.609 124.098 298.539 122.616 298.74 121.636C299.181 119.444 300.858 117.854 303.045 117.553C303.64 117.476 304.683 117.53 305.263 117.676Z" fill="white"/>
<path d="M316.708 116.403C314.111 116.696 312.488 118.417 312.836 120.509C312.96 121.25 313.153 121.651 313.601 122.099C314.297 122.794 315.131 123.11 317.442 123.573C319.652 124.006 320.317 124.229 320.881 124.708C321.252 125.017 321.422 125.441 321.422 126.089C321.422 127.232 320.711 128.011 319.397 128.32C317.372 128.783 314.923 128.336 313.238 127.178C312.968 126.993 312.89 126.969 312.836 127.054C312.797 127.116 312.666 127.34 312.535 127.564L312.295 127.965L312.627 128.212C312.813 128.343 313.284 128.613 313.671 128.799C316.121 129.964 319.699 129.887 321.414 128.629C321.947 128.235 322.187 127.942 322.481 127.317C322.674 126.9 322.697 126.769 322.697 126.005C322.697 125.248 322.674 125.109 322.496 124.731C321.955 123.589 320.912 123.048 318.238 122.531C317.457 122.385 316.561 122.192 316.244 122.099C315.093 121.783 314.359 121.227 314.158 120.517C314.034 120.069 314.096 119.367 314.297 118.965C314.521 118.533 315.162 117.977 315.657 117.792C317.287 117.182 320.07 117.522 321.437 118.487C321.631 118.626 321.685 118.641 321.739 118.549C321.777 118.487 321.909 118.263 322.04 118.039L322.272 117.638L322.04 117.476C321.383 117.013 319.915 116.534 318.679 116.395C317.89 116.31 317.535 116.31 316.708 116.403Z" fill="white"/>
<path d="M272.287 120.887C272.318 125.156 272.326 125.333 272.488 125.927C273.16 128.374 274.938 129.617 277.759 129.609C279.76 129.601 281.313 128.853 282.287 127.432L282.666 126.877L282.689 128.197L282.704 129.516H283.323H283.941V122.994V116.472H283.292H282.635L282.612 120.54C282.581 125.078 282.589 125.001 282.024 126.12C281.499 127.185 280.409 128.035 279.219 128.32C278.57 128.467 277.078 128.474 276.499 128.32C275.401 128.035 274.497 127.324 274.049 126.39C273.609 125.472 273.585 125.148 273.585 120.594V116.472H272.921H272.264L272.287 120.887Z" fill="white"/>
</svg>
