<svg width="24" height="41" viewBox="0 0 24 41" fill="none" xmlns="http://www.w3.org/2000/svg">
<path d="M3 13.9706H7V9.07353C7.2838 3.81093 8.94317 2.22558 14.5 2H20.375C20.9273 2 21.375 2.44772 21.375 3V7.52941C21.375 8.0817 20.9273 8.52941 20.375 8.52941H16.125C15.5727 8.52941 15.125 8.97713 15.125 9.52941V13.9706H20.8225C21.4395 13.9706 21.9092 14.5237 21.8093 15.1325L20.8875 20.7502C20.8082 21.2335 20.3905 21.5882 19.9007 21.5882H15.125V38C15.125 38.5523 14.6773 39 14.125 39H8C7.44772 39 7 38.5523 7 38V21.5882H3C2.44772 21.5882 2 21.1405 2 20.5882V14.9706C2 14.4183 2.44772 13.9706 3 13.9706Z" stroke="white" stroke-width="3"/>
</svg>
