<svg width="120" height="78" viewBox="0 0 120 78" fill="none" xmlns="http://www.w3.org/2000/svg">
<path d="M15.8294 34.5017C15.7739 34.8422 15.6401 35.1652 15.4386 35.4455C13.3647 38.5779 10.8548 39.2486 7.82063 38.7813C4.70756 38.2754 2.24034 36.7796 1.00496 33.8338C-0.180454 31.0003 0.30675 27.1987 0.352454 23.4738C0.453797 17.3973 1.51934 11.3752 3.50946 5.63133C5.36079 0.334522 7.52154 -0.387401 10.0905 0.259794C12.8857 0.959196 15.0649 2.69726 16.5977 7.31197C16.7486 7.73821 16.8283 8.18627 16.8337 8.63827C16.5877 10.2275 16.2486 11.801 15.8179 13.3505C15.4898 14.899 15.0616 16.4246 14.5358 17.9178C14.4584 18.085 14.3657 18.1592 14.2575 18.1502C13.9922 17.7091 13.7793 17.2387 13.6232 16.7485C13.2574 15.7624 12.8099 14.8085 12.2854 13.8965C11.6191 12.8234 10.912 12.2014 10.1597 12.0944C8.86149 11.9032 7.76645 13.2542 6.87773 15.917C6.10122 18.323 5.66375 20.8251 5.57787 23.3513C5.56282 25.2724 5.60455 26.904 6.08231 28.3853C6.58559 29.9939 7.55032 30.9129 8.9414 31.0445C9.80719 31.1095 10.6699 30.8839 11.3926 30.4037C12.015 29.991 12.5753 29.4917 13.0564 28.921C13.2839 28.6205 13.5437 28.3457 13.8313 28.1017C13.9246 28.101 14.0088 28.1984 14.0838 28.3694C14.2087 28.6576 14.5158 29.6452 15.0253 31.4301C15.3513 32.438 15.6197 33.4635 15.8294 34.5017Z" fill="white"/>
<path d="M36.6117 23.9906C36.5785 27.4213 35.7 33.4018 34.0234 37.1144C32.3469 40.827 30.1074 42.1915 27.1829 41.939C24.2584 41.6865 21.6078 39.9765 19.7473 36.1974C17.9267 32.5062 17.4972 26.9864 17.5361 23.6683C17.588 18.8016 18.4785 13.1101 20.3999 8.64101C22.1378 4.58492 24.3701 4.23491 27.0497 4.57743C29.7293 4.91996 31.9724 6.01066 33.8565 10.314C35.663 14.6491 36.5991 19.2958 36.6117 23.9906ZM31.6147 23.788C31.577 21.7862 31.1623 19.8093 30.3921 17.9605C29.5364 15.8646 28.4515 14.6475 27.1442 14.5545C25.837 14.4614 24.8532 15.591 23.9709 17.798C23.2048 19.7025 22.765 21.7219 22.6699 23.7719C22.6836 25.8057 23.0665 27.8201 23.8001 29.7177C24.6199 31.613 25.7578 32.6924 27.1385 32.7604C28.4259 32.8243 29.4986 31.7626 30.3528 29.7371C31.1016 27.8377 31.5281 25.8272 31.6147 23.788Z" fill="white"/>
<path d="M56.2522 15.8741C56.2614 17.0992 56.2345 18.7461 56.167 20.8734C56.0994 23.0008 56.0875 24.6867 56.0682 26.0346C56.0145 30.6612 55.3638 32.9596 55.2115 37.5428C55.2139 37.8565 55.0728 38.0339 54.8223 38.0358C54.5718 38.0377 54.3316 38.1081 53.895 38.1849C53.4584 38.2617 53.1739 38.3128 52.9727 38.3389C52.7715 38.3649 52.423 38.3969 51.9909 38.4148C51.5588 38.4328 51.225 38.4647 51.0091 38.4957C50.7932 38.5267 50.6741 38.3561 50.475 38.0097C49.8873 36.9408 48.7192 34.4405 46.7087 29.6676C45.9251 27.7176 45.0385 25.8103 44.0526 23.9538C44.0038 23.8614 43.9363 23.7802 43.8544 23.7152C43.7721 23.8252 43.733 23.9615 43.7443 24.0983C43.7545 25.4606 43.7287 27.9111 43.6868 31.4889C43.6449 35.0667 43.6203 37.6789 43.6173 39.2373C43.621 39.7274 43.4998 39.9488 43.2742 39.9897C41.5377 40.3017 40.6645 40.4553 38.908 40.7135C38.6626 40.7496 38.5384 40.5594 38.5351 40.1233C38.5236 38.5944 38.5577 35.9282 38.6722 32.2077C38.7867 28.4873 38.851 25.9335 38.8646 24.4731C38.853 22.9294 38.8365 20.7341 38.7127 16.6822C38.589 12.6302 38.5071 9.58265 38.4946 7.91653C38.4922 7.5931 38.6586 7.50854 38.9838 7.65312C39.4766 7.86505 40.1266 8.08069 40.88 8.32007C41.0572 8.37754 41.4114 8.44839 41.928 8.56213C42.2912 8.63372 42.6436 8.7513 42.9769 8.912C43.0854 8.96509 43.2497 9.2628 43.475 9.82468C45.4778 14.8867 46.5326 17.9858 48.5278 22.0384C48.9718 22.9514 49.663 24.0734 50.5206 25.7724C50.7348 26.1677 50.9181 26.3771 51.0803 26.3906C51.2425 26.4041 51.2682 25.8991 51.2666 25.0415C51.2581 23.8997 51.2106 22.1554 51.0841 19.7012C50.9576 17.2469 50.8893 15.3508 50.8801 14.1208C50.8768 13.6896 50.9689 13.5174 51.1513 13.6042C51.9357 13.9656 52.7382 14.2867 53.5555 14.5663C54.6291 14.9307 55.4265 15.1599 55.9582 15.3177C56.1601 15.3848 56.245 15.5654 56.2522 15.8741Z" fill="white"/>
<path d="M71.117 17.9584C71.1164 18.0494 71.0883 18.1381 71.0363 18.2128C70.9842 18.2876 70.9107 18.3449 70.8254 18.3771C69.6315 18.8361 68.4044 19.2041 67.1546 19.478C67.015 21.8166 66.9593 23.5568 66.9775 24.6691C66.9873 25.9775 66.9489 28.0605 66.8534 31.0409C66.7579 34.0212 66.6768 36.2957 66.6283 37.6829C66.63 37.9084 66.5818 38.041 66.4987 38.0858C66.377 38.1172 66.2511 38.1297 66.1256 38.1229C65.3459 38.1283 64.5666 38.0883 63.7915 38.0032C62.9883 37.9546 62.1887 37.8575 61.3972 37.7124C61.2807 37.68 61.1803 37.6059 61.1152 37.5042C61.05 37.4025 61.0248 37.2804 61.0443 37.1613C61.098 35.7985 61.3535 33.851 61.7418 31.2753C62.0549 29.283 62.2187 27.2702 62.232 25.2536C62.2255 24.3813 62.1735 22.6959 62.098 20.4863C60.7067 20.7127 59.2913 20.753 57.8893 20.6061C57.7518 20.6071 57.6776 20.5391 57.6769 20.4509C57.7116 20.1116 57.7715 19.7753 57.856 19.4449C57.989 18.8411 58.0697 18.4631 58.0833 18.316C58.1195 17.8992 58.1307 17.4286 58.1616 16.958C58.2149 16.2127 58.3199 15.8002 58.4723 15.8236L58.6593 15.8712C60.7184 16.4707 62.906 16.4729 64.9663 15.8777C66.4587 15.4319 67.8908 14.8057 69.2307 14.0128C70.3313 13.4018 70.8885 13.0448 70.8933 13.0202C71.0629 12.9373 71.1609 12.9022 71.1872 12.9151C71.2118 12.9149 71.2372 13.0372 71.2386 13.2235C71.2409 13.5273 71.2442 13.9585 71.1941 14.4931C71.1441 15.0276 71.1278 15.4737 71.1149 15.7188C71.102 15.9639 71.1197 16.3608 71.1234 16.8459C71.1436 17.2165 71.1414 17.588 71.117 17.9584Z" fill="white"/>
<path d="M84.7962 32.2292C84.9018 33.2085 85.0288 35.0747 85.1004 37.4167C85.1784 39.9595 85.0983 41.0677 84.9879 41.4067C84.8775 41.7456 84.76 41.7955 84.5731 41.7724C84.4362 41.7474 84.3025 41.7073 84.1744 41.6529C83.5243 41.4226 81.6405 41.0888 78.5365 40.4799C77.8576 40.3478 76.8507 40.1397 75.5158 39.8557C74.1809 39.5717 73.1757 39.362 72.5001 39.2265C72.2098 39.1699 72.0658 38.9652 72.0679 38.5878C72.0569 37.1177 72.102 34.618 72.1689 31.1087C72.2359 27.5993 72.2868 25.227 72.2672 23.9187C72.2475 22.6103 72.3522 20.1984 72.5629 16.8546C72.6154 15.9966 72.6992 14.7316 72.671 12.9333C72.6703 12.8402 72.6699 12.7961 72.6692 12.698C72.6578 12.5817 72.6824 12.4647 72.7396 12.3626C72.7968 12.2606 72.8838 12.1784 72.9891 12.1272C73.6104 11.7844 74.5497 11.2823 75.7974 10.6359C77.0451 9.98942 77.9843 9.4727 78.6057 9.14459C79.227 8.81648 80.1513 8.28027 81.399 7.62891C82.3108 7.14775 83.2507 6.72174 84.2138 6.3532C84.6595 6.18323 84.9113 6.34796 84.9395 6.83782C84.9611 7.79088 84.9157 8.74428 84.8037 9.69102C84.6492 11.3437 84.495 12.3985 84.429 12.7714C84.363 13.1444 84.2657 13.2627 84.099 13.2983C84.0152 13.3201 83.93 13.3355 83.8439 13.3443C81.8511 13.6122 79.9098 14.1769 78.0849 15.0195C77.8958 15.0887 77.7229 15.1959 77.577 15.3344C77.431 15.4728 77.3151 15.6397 77.2363 15.8247C77.1154 16.3085 77.0305 16.8005 76.9821 17.2968C76.86 17.8272 76.8726 18.3796 77.0187 18.9039C77.1233 19.0942 77.3593 19.1268 77.7317 19.0015L78.1871 18.8167C78.4123 18.7219 78.5984 18.647 78.7454 18.5969C79.7254 18.2759 80.7052 17.9255 81.7634 17.5598C81.8565 17.5248 82.0867 17.4398 82.4393 17.295C82.653 17.1989 82.8742 17.1202 83.1006 17.0597C83.2968 17.019 83.3715 17.1606 83.3298 17.4892C83.3668 17.19 83.0467 18.3784 82.8621 20.6243C82.7962 21.8859 82.8319 23.1508 82.9691 24.4068C82.9965 24.7839 82.8999 24.9954 82.6644 25.0314C82.2219 24.9857 82.0007 24.9629 81.5633 24.927C80.5257 24.9632 79.4954 25.1156 78.4918 25.3813L77.2659 25.6552C77.1181 25.6814 76.9841 25.7584 76.8872 25.8728C76.7903 25.9872 76.7365 26.1317 76.7352 26.2815C76.7359 26.3697 76.7397 26.8794 76.8062 27.8933C76.8294 28.7903 76.9215 29.6841 77.0817 30.567C77.2589 31.2665 77.8072 31.674 78.7266 31.7847L80.5289 31.7369C81.1844 31.6894 81.8326 31.5695 82.4615 31.3793C83.1 31.1834 83.7578 31.0568 84.4235 31.0019C84.5758 31.0057 84.7213 31.4113 84.7962 32.2292Z" fill="white"/>
<path d="M103.546 4.18916C103.598 5.91379 103.742 9.37748 103.906 14.2083C104.07 19.0391 104.101 21.8273 104.126 23.2581C104.316 28.226 104.918 33.1613 105.22 38.1185C105.223 38.4811 105.107 38.6976 104.837 38.7781C104.567 38.8585 104.283 38.9636 103.857 39.1285C103.431 39.2934 103.078 39.4039 102.877 39.4691C102.525 39.5713 102.166 39.6509 101.803 39.7075C101.442 39.7625 101.083 39.8372 100.729 39.9312C100.563 39.9765 100.36 39.8016 100.101 39.3478C99.3495 38.0205 97.4045 34.1048 94.3154 26.9828C93.4654 24.9946 92.0932 22.1479 90.926 19.77C90.8794 19.6761 90.8135 19.5931 90.7326 19.5264C90.6402 19.64 90.5924 19.7832 90.5981 19.9293C90.5253 21.3657 90.8075 24.2648 91.4717 29.6407C92.1358 35.0166 92.5925 38.919 92.7249 40.8587C92.7637 41.4416 92.6527 41.7071 92.4122 41.7285C90.8882 41.8967 89.351 41.9083 87.8247 41.7629C87.5644 41.7649 87.4298 41.5111 87.3965 41.0016C87.2751 39.2187 86.9637 35.6877 86.4981 30.5994C86.0326 25.5111 85.7926 22.3324 85.7422 20.8577C85.6863 19.3046 85.9248 17.0436 86.4635 13.5601C87.0022 10.0766 87.3662 7.5353 87.4726 6.0055C87.48 5.86614 87.5389 5.73445 87.638 5.63593C87.737 5.53741 87.8692 5.47907 88.0089 5.4722C88.4995 5.38521 89.1419 5.24806 89.8973 5.11007C90.0739 5.07444 90.4318 4.98354 90.9415 4.8327C91.2746 4.7282 91.6185 4.6615 91.9666 4.63387C92.0648 4.63313 92.2185 4.8231 92.4034 5.24317C94.0235 9.04861 94.2047 12.2523 95.9334 17.434C96.4758 19.0249 97.1444 20.5701 97.9329 22.055C98.1969 22.5431 98.4297 22.8109 98.597 22.8488C98.7643 22.8868 98.7353 22.2989 98.7625 21.3333C98.8018 20.0294 98.8218 17.4662 98.8608 13.4915C98.8997 9.51676 98.9623 6.73272 99.0147 5.20822C99.0107 4.67898 99.1169 4.43315 99.2788 4.40743C99.7351 4.34029 100.422 4.19792 101.324 3.98041C102.226 3.76291 102.898 3.61085 103.344 3.52908C103.462 3.5233 103.532 3.7188 103.546 4.18916Z" fill="white"/>
<path d="M118.962 12.3848C119.07 12.9328 119.028 13.2076 118.835 13.209C117.47 13.0684 116.113 12.8594 114.768 12.5829C115.904 19.249 116.489 23.1995 116.633 24.7568C116.799 26.5933 116.742 28.108 116.895 30.1945C117.048 32.2811 117.129 33.8487 117.138 35.0591C117.146 35.13 117.14 35.202 117.119 35.2705C117.099 35.3389 117.064 35.4024 117.018 35.4569C116.898 35.5174 116.771 35.5643 116.641 35.597C116.102 35.7774 115.307 35.9745 114.253 36.2177C113.447 36.4378 112.628 36.6076 111.801 36.7262C111.546 36.7281 111.412 36.6017 111.405 36.3028C111.395 34.9503 111.295 32.8437 111.216 30.0706C111.136 27.2974 111.231 25.6109 111.1 23.8329C111.017 22.6525 110.574 19.2057 109.655 12.6507C108.33 13.0173 106.957 13.1812 105.582 13.137C105.44 13.1381 105.365 13.0161 105.344 12.7958C105.322 12.5754 105.335 11.6491 105.325 10.2623C105.338 8.74787 105.351 7.87546 105.344 7.57167C105.312 6.63589 105.261 5.72475 105.245 4.90646C105.235 3.60786 105.296 3.12224 105.423 3.09678L105.58 3.0956C107.412 3.12554 109.244 3.00031 111.054 2.72124C111.761 2.63752 113.016 2.30956 115.042 1.90719C116.116 1.6933 116.69 1.62038 116.7 1.6203C116.872 1.61901 116.975 1.61824 117.005 1.66702C117.057 1.80629 117.085 1.95371 117.087 2.10256C117.134 2.52366 117.183 3.17018 117.313 4.15423C117.454 5.24112 117.608 6.14658 117.701 6.67516C117.793 7.20374 117.997 8.18234 118.296 9.45426C118.595 10.7262 118.819 11.7291 118.962 12.3848Z" fill="white"/>
<path d="M39.9958 71.7266C39.9291 72.1204 39.794 72.4996 39.5965 72.847C37.5579 76.7534 35.6407 77.8606 32.9491 77.8809C30.2575 77.9011 27.9643 76.6784 26.2288 73.1973C24.5432 69.8236 23.6508 64.8071 23.6358 60.8426C23.6029 56.4617 24.2809 51.2472 26.0977 47.2395C27.8662 43.34 30.2222 42.4549 32.8099 42.3375C35.6284 42.2085 37.5791 42.9534 39.5286 46.1438C39.7212 46.4392 39.8477 46.7726 39.8994 47.1212C39.8085 48.4551 39.5998 49.7784 39.2758 51.0758C38.8019 53.3777 38.3886 54.5962 38.2187 54.867C38.1928 54.9282 38.1512 54.9815 38.098 55.0215C38.0448 55.0614 37.982 55.0867 37.9159 55.0947C37.6005 54.8097 37.3268 54.4818 37.103 54.1207C36.6257 53.4342 36.0759 52.8009 35.463 52.2316C34.8466 51.6183 34.0127 51.2724 33.1422 51.2689C31.7968 51.328 30.7385 52.3356 29.9329 54.2922C29.1888 56.1279 28.8034 58.0886 28.7974 60.0688C28.8135 62.0547 29.1911 64.0213 29.9118 65.8726C30.7023 67.8024 31.7368 68.8532 33.0874 68.8283C33.9852 68.7649 34.8268 68.3688 35.4467 67.7177C36.056 67.1186 36.6009 66.4575 37.0725 65.7453C37.2938 65.3625 37.5636 65.0096 37.875 64.6954C37.9782 64.6946 38.077 64.7772 38.1669 64.9676C38.6034 66.0626 38.9631 67.1865 39.2433 68.3312C39.5863 69.4407 39.838 70.5763 39.9958 71.7266Z" fill="white"/>
<path d="M56.9704 76.8235C56.9711 76.9215 56.8538 76.991 56.6724 77.0365C55.8316 77.1529 54.9826 77.2003 54.134 77.178C53.3496 77.2089 52.5641 77.1755 51.7853 77.0781C51.6734 77.0643 51.5649 77.0303 51.4653 76.9776C51.3862 76.8476 51.3427 76.6992 51.3392 76.5472C51.2766 75.5974 51.2809 74.6443 51.3522 73.695C51.4566 71.9054 51.8511 68.8396 51.9753 65.1043C52 64.9576 51.9908 64.8071 51.9484 64.6644C51.9061 64.5218 51.8318 64.3906 51.7311 64.2808C51.6304 64.171 51.5059 64.0856 51.3672 64.0309C51.2284 63.9763 51.0791 63.9539 50.9304 63.9654C51.2545 63.963 50.6853 64.0408 49.2174 64.1449C49.0504 64.1462 48.8724 64.6376 48.6538 65.6194C48.364 66.9251 47.9275 68.9818 47.485 71.5432C47.0426 74.1047 46.8387 75.7332 46.7478 76.714C46.725 76.9543 46.6672 77.1067 46.5937 77.1318C46.4705 77.1543 46.3459 77.1683 46.2207 77.1738C45.6956 77.2316 44.8805 77.2671 43.7655 77.2755C43.0026 77.3183 42.2374 77.2863 41.4807 77.18C41.2247 77.1035 41.0955 76.8986 41.1076 76.5457C41.3201 73.6137 41.6835 70.6945 42.1962 67.7996C42.867 63.5849 43.1609 60.8629 43.1162 59.4959C42.9567 53.9447 41.688 48.5341 41.0278 43.0356L41.0255 42.7318C41.0181 42.6108 41.0513 42.4909 41.12 42.3909C41.1887 42.291 41.2888 42.2168 41.4045 42.1801C41.6786 42.0506 42.9731 41.7419 45.2729 41.2248C46.8258 40.8864 48.0682 40.6272 49.0002 40.447C50.923 40.0993 52.5174 40.4892 54.3465 42.0437C56.408 43.7973 58.8054 47.1216 60.6835 51.2681C61.9273 54.0325 62.3395 55.9358 62.0833 57.1384C61.8271 58.341 60.6913 59.4962 59.0914 60.9981C58.8236 61.2126 58.6187 61.4951 58.4983 61.816C58.3987 64.3102 58.1385 66.7953 57.7191 69.2562C57.307 71.76 57.0569 74.2876 56.9704 76.8235ZM55.209 53.5439C54.4903 51.3783 53.4072 49.7398 52.2862 48.9397C51.3446 48.3009 50.1874 48.0611 49.0688 48.2728C48.1315 48.3975 47.7019 48.7487 47.7944 49.2968C47.8975 49.9429 48.4478 51.9187 49.0481 54.6781C49.1345 55.0695 49.2617 55.6567 49.3897 56.3467C49.5177 57.0367 49.5803 57.5165 49.6071 57.8153C49.6075 57.879 49.8093 57.9314 50.1878 57.9628C50.94 58.0208 51.6959 58.0152 52.4472 57.9458C55.0048 57.7453 56.2293 56.6335 55.209 53.5439Z" fill="white"/>
<path d="M79.2108 74.0535C79.2123 74.2642 79.0421 74.486 78.7239 74.6256C77.651 74.9717 76.5502 75.2242 75.4336 75.3805C74.3901 75.6115 73.3269 75.7426 72.2585 75.7719C71.8849 75.7404 71.6717 75.4725 71.6725 74.9187C71.6567 72.8164 71.9351 71.3001 71.7916 71.159C71.6481 71.018 70.2641 71.1705 67.7604 71.3608C66.0766 71.5009 65.1935 71.63 65.0229 71.8126C64.3848 72.7514 63.8598 73.7621 63.459 74.8236C62.8607 76.2591 62.595 76.8638 62.3355 76.9687C62.0759 77.0736 60.9715 77.1701 59.272 77.1828C57.9311 77.1929 57.2417 76.9579 57.347 76.5847C59.0022 70.6915 64.6752 64.1016 66.7547 58.4502C68.7861 52.9315 63.2214 45.8086 62.9494 39.6848C62.9455 39.1654 63.0567 38.9244 63.1992 38.9331C63.5737 38.9722 63.945 39.0365 64.3108 39.1257C64.8028 39.2396 65.1963 39.3151 65.4422 39.3475C65.688 39.38 66.032 39.397 66.4889 39.4132C66.8328 39.4209 67.1758 39.4495 67.5162 39.4986C67.6834 39.5218 67.8521 39.7558 68.0867 40.249C71.2338 46.5962 77.3655 52.6956 78.419 58.887C79.1887 63.2624 78.9416 69.6106 79.2108 74.0535ZM71.1583 52.2423C71.3558 53.0348 72.0181 54.8822 71.9249 56.8677C71.8278 58.9757 70.7875 60.4194 70.6437 60.8959C70.5478 61.2102 70.7653 61.385 71.2423 61.4549C71.6645 61.5109 72.0894 61.5453 72.5152 61.5581C73.0752 61.5539 73.4231 61.4484 73.5586 61.1778C73.6095 61.0638 73.6497 60.9454 73.6788 60.8241C74.1139 59.5222 74.0789 58.1096 73.58 56.8308C72.9662 55.2072 72.1527 53.6659 71.1583 52.2423Z" fill="white"/>
<path d="M92.429 51.1619C92.504 51.3476 92.4311 51.4412 92.2739 51.4375C91.2317 51.3822 90.1974 51.2258 89.1856 50.9706C87.7883 50.6626 86.7699 50.4399 86.1308 50.3663C85.3147 50.2695 84.8725 50.263 84.7899 50.3764C84.6052 50.6326 84.8275 51.4591 85.3879 52.8222C86.0583 54.454 86.5365 55.3325 86.9951 55.579C87.2416 55.6919 87.5069 55.758 87.7776 55.7741C88.6047 55.8378 89.4351 55.8463 90.2632 55.7995C91.3681 55.752 92.2274 55.7161 92.8169 55.7264C93.1018 55.7243 93.9635 57.3105 94.0239 59.4663C94.0723 61.338 94.3252 62.3114 94.3028 62.5958C94.3043 62.7967 94.1971 62.9053 94.03 62.9016C93.7563 62.8291 93.4764 62.7819 93.1939 62.7609C92.2596 62.6209 90.8737 62.5186 89.0409 62.4393C88.4515 62.4437 88.1172 62.407 88.0584 62.4172C87.9644 62.429 87.8738 62.46 87.7924 62.5083C87.711 62.5567 87.6404 62.6212 87.5852 62.698C87.53 62.7748 87.4913 62.8622 87.4715 62.9546C87.4517 63.047 87.4512 63.1425 87.4701 63.2352C87.5923 65.1161 87.7914 67.4179 88.0796 69.8269C88.3464 71.9958 88.4657 72.8379 88.4494 72.6224C88.4517 72.936 88.1342 73.1638 87.4183 73.3309C86.903 73.3762 86.3916 73.457 85.8875 73.5727C84.4956 73.8707 83.0801 74.0453 81.6574 74.0946C81.3183 74.0726 81.1647 73.9071 81.1625 73.6082C81.2153 72.1376 81.5352 69.6016 82.0296 66.0988C82.4196 63.7141 82.6444 61.3054 82.7024 58.8898C82.6903 57.2874 81.7865 54.6625 80.0649 51.0685C77.3999 45.4773 76.4861 42.8476 76.4001 42.515C76.3699 42.4074 76.3547 42.3536 76.3294 42.2509C76.2432 41.8938 76.3552 41.7607 76.6306 41.8125C77.28 41.9497 78.2642 42.1825 79.5828 42.4813C80.9015 42.7802 81.895 42.954 82.5345 43.0766C83.5778 43.2245 84.6309 43.2919 85.6846 43.2784C87.0844 43.2679 88.1404 43.26 88.8479 43.2841C89.29 43.2807 89.5771 43.5775 89.6942 44.1206C89.8923 45.0991 90.1673 46.0605 90.5164 46.996C90.6467 47.343 90.9417 48.0269 91.4456 49.0718C91.8893 49.9359 92.2336 50.6537 92.429 51.1619Z" fill="white"/>
<path d="M106.695 47.419C106.811 47.7465 106.773 47.9477 106.577 48.0178C105.222 48.4119 103.847 48.7347 102.458 48.9848C103.963 53.188 104.676 55.8682 104.799 57.1562C104.943 58.6792 105.076 60.8149 105.502 64.5558C105.928 68.2967 106.2 71.0537 106.299 72.5575C106.301 72.7959 106.283 72.9382 106.244 72.9842C106.244 72.9842 106.14 72.985 105.988 72.9862C105.42 72.9412 104.858 72.847 104.306 72.7048C103.67 72.5863 103.042 72.4273 102.426 72.2288C102.317 72.1756 102.226 72.093 102.162 71.9904C102.097 71.8878 102.063 71.7693 102.063 71.6484C101.901 70.2725 101.432 68.0511 100.8 65.0224C100.358 62.8747 100.048 60.7019 99.8722 58.5164C99.7713 57.5076 99.0791 54.9497 97.2476 50.45C95.9759 51.0068 94.6137 51.3292 93.2269 51.4015C93.0894 51.4025 92.9856 51.32 92.9156 51.1539C92.8304 50.934 92.6242 50.2838 92.3409 49.198C92.0277 48.0389 91.8801 47.349 91.8341 47.1141C91.6222 46.3757 91.4154 45.6471 91.2874 44.957C91.0778 43.8707 91.1676 43.3995 91.3199 43.3935L91.5114 43.392C92.9865 43.5917 95.147 43.4872 98.0201 42.7796C99.5423 42.3384 101.032 41.7918 102.478 41.1436L104.255 40.3755C104.436 40.3203 104.544 40.2998 104.574 40.3241C104.632 40.4362 104.665 40.5598 104.67 40.6861C104.717 41.0386 104.785 41.5624 104.927 42.2621C105.085 43.0401 105.252 43.627 105.353 43.9693C105.454 44.3116 105.679 44.9469 105.994 45.6846C106.309 46.4222 106.56 47.028 106.695 47.419Z" fill="white"/>
</svg>
