<svg width="41" height="41" viewBox="0 0 41 41" fill="none" xmlns="http://www.w3.org/2000/svg">
<path d="M34.8526 5.96052C32.9732 4.06297 30.7349 2.55866 28.268 1.53532C25.8012 0.51198 23.1553 -0.00989335 20.4846 0.000142027C9.29419 0.000142027 0.17425 9.11752 0.164 20.3105C0.164 23.8955 1.10188 27.383 2.87256 30.4708L0 41.0001L10.7727 38.1763C13.7516 39.8015 17.0912 40.6518 20.4846 40.6491H20.4949C31.6879 40.6491 40.8053 31.5317 40.8155 20.3285C40.8178 17.6585 40.2919 15.0144 39.268 12.5486C38.2442 10.0827 36.7453 7.84369 34.8526 5.96052ZM20.4846 37.2102C17.4588 37.2078 14.489 36.3937 11.8849 34.8527L11.2699 34.4837L4.879 36.1596L6.58562 29.925L6.18587 29.2818C4.49413 26.592 3.59941 23.4778 3.60544 20.3003C3.60544 11.0086 11.1827 3.42877 20.4949 3.42877C22.7133 3.42479 24.9106 3.85997 26.9601 4.70923C29.0096 5.55848 30.8707 6.80501 32.4361 8.37695C34.0067 9.94302 35.2518 11.8044 36.0997 13.8539C36.9476 15.9033 37.3816 18.1003 37.3766 20.3182C37.3664 29.6431 29.7891 37.2102 20.4846 37.2102ZM29.7481 24.5668C29.2432 24.3131 26.7499 23.0857 26.281 22.9115C25.8146 22.7449 25.4738 22.6578 25.1407 23.1651C24.7999 23.67 23.8261 24.8205 23.534 25.1511C23.2419 25.4919 22.9395 25.5303 22.4321 25.2792C21.9273 25.023 20.2899 24.49 18.3526 22.7551C16.8407 21.4098 15.8286 19.7442 15.5262 19.2394C15.2341 18.732 15.498 18.4604 15.7517 18.2067C15.9746 17.9812 16.2565 17.6122 16.5102 17.3201C16.7664 17.028 16.851 16.8127 17.0176 16.4745C17.1841 16.1311 17.1047 15.839 16.9791 15.5853C16.851 15.3316 15.8388 12.828 15.4109 11.8184C15.0009 10.8216 14.5832 10.96 14.2706 10.9471C13.9784 10.9292 13.6376 10.9292 13.2968 10.9292C13.0395 10.9358 12.7863 10.9953 12.553 11.1043C12.3198 11.2132 12.1115 11.369 11.9412 11.5621C11.4749 12.0695 10.1706 13.297 10.1706 15.8005C10.1706 18.3041 11.9899 20.7103 12.2462 21.0511C12.4973 21.3919 15.8183 26.5143 20.9151 28.7181C22.1195 29.2434 23.0676 29.5535 23.8082 29.7892C25.0254 30.1787 26.1247 30.1198 27.0011 29.9942C27.9748 29.8456 30.0018 28.7642 30.4297 27.5778C30.8499 26.3888 30.8499 25.374 30.7218 25.1613C30.5963 24.9461 30.2554 24.8205 29.7481 24.5668Z" fill="white"/>
</svg>
