<svg width="1103" height="1600" viewBox="0 0 1103 1600" fill="none" xmlns="http://www.w3.org/2000/svg">
<g clip-path="url(#clip0_79_40)">
<path d="M484.858 1469.05C475.312 1415.74 568.222 1419.26 598.903 1434.72C607.229 1438.07 614.07 1444.53 618.099 1452.84C620.658 1461.09 620.055 1470.06 616.414 1477.85C612.657 1486.81 607.124 1494.84 600.183 1501.41C593.241 1507.98 585.044 1512.94 576.135 1515.96C558.144 1521.92 538.699 1520.92 521.358 1513.14C507.031 1507.41 495.342 1496.17 488.687 1481.74C486.959 1477.67 485.675 1473.42 484.858 1469.05Z" stroke="white" stroke-opacity="0.08" stroke-width="6" stroke-miterlimit="10"/>
<path d="M235.931 152.399C235.931 152.399 322.411 564.377 373.358 568.216C373.358 568.216 328.333 616.196 304.644 615.235C304.644 615.235 286.828 659.75 245.376 659.75L160.071 723.987L130.461 790.784C130.461 790.784 148.227 194.46 235.931 152.399Z" stroke="white" stroke-opacity="0.08" stroke-width="6" stroke-miterlimit="10"/>
<path d="M868.551 152.399C868.551 152.399 771.554 560.647 732.297 574.293C732.297 574.293 738.22 596.523 800.399 616.356C800.399 616.356 818.777 649.727 850.786 649.727L949.108 728.892L966.873 779.643C966.873 779.643 956.204 260.031 868.551 152.399Z" stroke="white" stroke-opacity="0.08" stroke-width="6" stroke-miterlimit="10"/>
<path d="M646.888 1288.12C646.888 1288.12 653.984 1102.54 835.263 1062.93C1016.54 1023.33 986.882 913.24 986.882 913.24C986.882 913.24 1022.62 1138.42 869.466 1189.12C716.315 1239.82 664.754 1239.87 646.888 1288.12Z" stroke="white" stroke-opacity="0.08" stroke-width="6" stroke-miterlimit="10"/>
<path d="M830.67 727.668C854.033 754.233 872.87 784.775 886.366 817.976C905.636 866.089 913.348 918.396 908.828 970.336L776.097 1034.63C815.337 937.634 833.957 832.906 830.67 727.668Z" stroke="white" stroke-opacity="0.08" stroke-width="6" stroke-miterlimit="10"/>
<path d="M288.054 727.668C233.846 798.091 207.554 887.533 214.591 977.586L335.479 1022.1C299.336 928.732 283.167 828.244 288.105 727.668H288.054Z" stroke="white" stroke-opacity="0.08" stroke-width="6" stroke-miterlimit="10"/>
<path d="M214.593 1223.51L274.984 1344.79C275.758 1328.32 280.37 1312.3 288.423 1298.11C296.473 1283.92 307.721 1272 321.185 1263.39L214.593 1223.51Z" stroke="white" stroke-opacity="0.08" stroke-width="6" stroke-miterlimit="10"/>
<path d="M802.181 1241.08L897.031 1211.38L842.51 1332.66C838.77 1312.85 832.394 1293.69 823.57 1275.73C817.525 1263.48 810.362 1251.88 802.181 1241.08Z" stroke="white" stroke-opacity="0.08" stroke-width="6" stroke-miterlimit="10"/>
<path d="M408.739 517.437C497.209 458.264 619.065 459.117 706.769 519.464C728.484 429.476 754.9 340.794 785.898 253.822C802.693 206.748 818.468 159.196 836.947 112.869C853.131 73.2601 866.403 35.1434 891.061 0.278731C891.629 -0.792723 892.401 -1.72968 893.333 -2.47294C894.265 -3.21621 895.333 -3.74959 896.471 -4.03937C897.677 -3.9355 898.846 -3.55708 899.895 -2.93078C900.945 -2.30445 901.849 -1.44547 902.548 -0.414285C966.258 70.0081 988.159 161.648 992.141 256.221C996.225 352.977 985.759 451.281 1006.03 545.798C1028.28 649.327 1087.04 749.71 1068.46 854.036C1060.09 835.111 1041.61 805.419 1023.33 801.473C1060.5 809.523 1060.91 949.035 1061.77 976.33C1063.76 1042.22 1062.28 1113.18 1096.23 1171.55L1058.1 1115.57C1061.98 1174.29 1075.14 1231.94 1097.05 1286.17L1026.86 1178.37L1068.66 1300.03L1025.07 1255.3C1021.09 1297.31 988.159 1330.47 952.423 1350.19C916.688 1369.92 876.613 1380.1 840.879 1399.45C789.827 1426.85 749.651 1471.1 705.595 1509.27C661.538 1547.44 609.213 1581.18 551.935 1580.6C492.002 1579.96 438.552 1541.89 393.678 1500.63C348.806 1459.37 306.892 1411.87 252.678 1385.43C216.329 1367.78 176.102 1360.32 140.367 1341.29C104.632 1322.26 72.2658 1285.9 75.1247 1244.16L37.1942 1296.4L74.5631 1179.97L5.95154 1278.06C30.115 1224.5 44.2213 1166.59 47.5065 1107.47L13.8643 1160.25C42.912 1105.77 39.3895 1039.61 39.3895 977.183C39.3895 919.181 46.8939 857.928 82.7822 809.576C65.1697 815.867 45.5665 831.541 28.4137 842.735C63.4851 819.918 72.8784 661.482 78.2897 621.178C88.8061 542.066 93.6049 462.315 99.9351 382.724C104.07 329.414 117.905 -46.9006 219.699 15.7385C240.579 28.5863 251.349 53.3753 260.538 76.725C318.099 220.497 367.581 367.652 408.739 517.437Z" stroke="white" stroke-opacity="0.08" stroke-width="6" stroke-miterlimit="10"/>
<path d="M447.796 1275.98C447.796 1275.98 440.65 1090.41 257.787 1050.8C74.9254 1011.2 104.637 901.11 104.637 901.11C104.637 901.11 68.9015 1126.29 223.175 1176.78C377.45 1227.26 429.827 1227.74 447.796 1275.98Z" stroke="white" stroke-opacity="0.08" stroke-width="6" stroke-miterlimit="10"/>
</g>
<defs>
<clipPath id="clip0_79_40">
<rect width="1103" height="1600" fill="white"/>
</clipPath>
</defs>
</svg>
