<svg width="243" height="343" viewBox="0 0 243 343" fill="none" xmlns="http://www.w3.org/2000/svg">
<g clip-path="url(#clip0_3_28)">
<mask id="mask0_3_28" style="mask-type:luminance" maskUnits="userSpaceOnUse" x="0" y="0" width="243" height="343">
<path d="M242.08 0H0V342.51H242.08V0Z" fill="white"/>
</mask>
<g mask="url(#mask0_3_28)">
<path d="M104.64 69C110.746 65.2228 117.794 63.2445 124.974 63.2923C132.154 63.34 139.175 65.4119 145.23 69.27C148.188 57.5362 151.783 45.9724 156 34.63C158.28 28.49 160.43 22.29 163 16.24C165.18 11.05 167 6.11 170.35 1.56C170.429 1.42149 170.535 1.30045 170.663 1.2042C170.79 1.10795 170.935 1.03848 171.09 1C171.253 1.01317 171.411 1.06212 171.553 1.14336C171.694 1.22461 171.816 1.33614 171.91 1.47C180.59 10.66 183.57 22.61 184.12 34.94C184.67 47.56 183.25 60.39 186.01 72.71C189.01 86.22 197.01 99.31 194.51 112.92C193.37 110.45 190.86 106.58 188.36 106.06C193.43 107.06 193.48 125.31 193.6 128.87C193.87 137.46 193.67 146.71 198.29 154.32L193.08 147C193.605 154.668 195.396 162.197 198.38 169.28L188.83 155.19L194.52 171.05L188.58 165.22C188.03 170.7 183.58 175.02 178.68 177.6C173.78 180.18 168.37 181.5 163.48 184.02C156.55 187.59 151.06 193.36 145.06 198.34C139.06 203.32 131.92 207.72 124.13 207.64C115.96 207.56 108.69 202.64 102.57 197.19C96.45 191.74 90.77 185.61 83.37 182.19C78.37 179.88 72.92 178.91 68.05 176.43C63.18 173.95 58.81 169.23 59.17 163.79L54 170.61L59.09 155.43L49.78 168.19C53.0764 161.195 54.9946 153.631 55.43 145.91L50.88 152.85C54.88 145.74 54.37 137.12 54.38 128.98C54.38 121.41 55.38 113.42 60.29 107.12C57.89 107.94 55.22 109.98 52.88 111.44C57.66 108.44 58.94 87.83 59.68 82.55C61.11 72.23 61.78 61.82 62.68 51.45C63.24 44.52 65.12 -4.55 78.99 3.58C81.83 5.26 83.3 8.49 84.57 11.58C92.3624 30.3167 99.0636 49.4888 104.64 69Z" fill="#252525" stroke="#9D9D9C" stroke-width="3.5" stroke-miterlimit="10"/>
<path d="M31.7001 253.7C31.5801 254.393 31.3031 255.05 30.8901 255.62C26.6201 261.97 21.5001 263.32 15.3301 262.29C9.00006 261.23 4.00005 258.14 1.53005 252.11C-0.839944 246.26 0.210056 238.56 0.360056 231C0.660248 218.599 2.92156 206.324 7.06005 194.63C10.9101 183.85 15.3201 182.42 20.5401 183.77C26.2201 185.24 30.6301 188.82 33.6801 198.26C33.9799 199.136 34.1353 200.054 34.1401 200.98C33.6173 204.219 32.9061 207.424 32.0101 210.58C31.3195 213.732 30.4242 216.835 29.3301 219.87C29.1701 220.21 28.9801 220.37 28.7601 220.35C28.2283 219.442 27.8022 218.475 27.4901 217.47C26.7587 215.456 25.8623 213.506 24.8101 211.64C23.4701 209.43 22.0401 208.16 20.5101 207.92C17.8701 207.52 15.6201 210.26 13.7701 215.68C12.1527 220.564 11.2204 225.649 11.0001 230.79C10.9401 234.7 11.0001 238.04 11.9501 241.06C12.9501 244.35 14.9001 246.25 17.7301 246.53C19.4906 246.679 21.2506 246.236 22.7301 245.27C24.0031 244.437 25.1512 243.426 26.1401 242.27C26.6092 241.664 27.1423 241.111 27.7301 240.62C27.9201 240.62 28.0901 240.81 28.2401 241.17C28.4901 241.76 29.1001 243.77 30.1101 247.43C30.7579 249.488 31.2887 251.582 31.7001 253.7Z" fill="#9D9D9C"/>
<path d="M74.1701 232.57C74.0501 239.57 72.1701 251.76 68.7001 259.31C65.2301 266.86 60.6501 269.6 54.7001 269.05C48.7501 268.5 43.3801 265 39.6501 257.22C36.0001 249.65 35.2101 238.39 35.3401 231.62C35.5201 221.69 37.4201 210.09 41.4001 201C45.0201 192.74 49.5501 192.06 55.0201 192.81C60.4901 193.56 65.0201 195.81 68.7901 204.62C72.3947 213.495 74.2225 222.991 74.1701 232.57ZM64.0001 232.07C63.9656 227.991 63.1651 223.954 61.6401 220.17C59.9301 215.88 57.7401 213.38 55.0801 213.17C52.4201 212.96 50.4001 215.25 48.5701 219.73C46.9813 223.608 46.0551 227.725 45.8301 231.91C45.8146 236.058 46.5497 240.174 48.0001 244.06C49.6401 247.94 51.9401 250.16 54.7501 250.32C57.3701 250.46 59.5701 248.32 61.3401 244.2C62.8936 240.332 63.7926 236.233 64.0001 232.07Z" fill="#9D9D9C"/>
<path d="M114.28 216.35C114.28 218.85 114.2 222.2 114.03 226.55C113.86 230.9 113.81 234.33 113.75 237.08C113.57 246.52 112.21 251.19 111.83 260.55C111.83 261.19 111.54 261.55 111.03 261.55C110.52 261.55 110.03 261.68 109.14 261.83C108.25 261.98 107.67 262.09 107.26 262.14C106.85 262.19 106.14 262.25 105.26 262.28C104.591 262.292 103.923 262.342 103.26 262.43C102.95 262.43 102.58 262.14 102.18 261.38C101.03 259.16 98.6801 254.04 94.6601 244.23C93.0972 240.251 91.3213 236.358 89.3401 232.57C89.2401 232.379 89.1043 232.21 88.9401 232.07C88.7726 232.294 88.691 232.571 88.7101 232.85C88.7101 235.64 88.6201 240.63 88.4801 247.94C88.3401 255.25 88.2501 260.57 88.2201 263.74C88.2201 264.74 87.9701 265.2 87.5101 265.28C83.9701 265.89 82.1901 266.19 78.6101 266.68C78.1101 266.75 77.8601 266.37 77.8601 265.47C77.8601 262.36 77.9701 256.92 78.2601 249.33C78.5501 241.74 78.7201 236.53 78.7701 233.54C78.7701 230.4 78.7701 225.92 78.5801 217.65C78.3901 209.38 78.2701 203.16 78.2701 199.76C78.2701 199.1 78.6101 198.93 79.2701 199.23C80.2701 199.66 81.5901 200.12 83.1201 200.62C83.4801 200.74 84.2001 200.89 85.2501 201.13C85.9883 201.282 86.7041 201.527 87.3801 201.86C87.6001 201.97 87.9301 202.58 88.3801 203.73C92.3801 214.09 94.4801 220.42 98.4801 228.73C99.3701 230.6 100.76 232.9 102.48 236.38C102.91 237.19 103.28 237.62 103.61 237.65C103.94 237.68 104 236.65 104.01 234.89C104.01 232.57 103.94 229.01 103.72 224C103.5 218.99 103.39 215.12 103.39 212.61C103.39 211.73 103.58 211.38 103.95 211.56C105.542 212.309 107.17 212.977 108.83 213.56C111.01 214.32 112.63 214.8 113.71 215.13C114.1 215.27 114.27 215.67 114.28 216.35Z" fill="#9D9D9C"/>
<path d="M144.51 220.78C144.508 220.967 144.45 221.149 144.343 221.303C144.236 221.456 144.085 221.574 143.91 221.64C141.471 222.553 138.967 223.285 136.42 223.83C136.1 228.6 135.96 232.15 135.98 234.42C135.98 237.09 135.87 241.34 135.63 247.42C135.39 253.5 135.19 258.13 135.07 260.97C135.07 261.42 134.97 261.69 134.8 261.79C134.552 261.852 134.296 261.876 134.04 261.86C132.453 261.859 130.867 261.766 129.29 261.58C127.656 261.469 126.029 261.258 124.42 260.95C124.181 260.882 123.976 260.728 123.845 260.517C123.714 260.306 123.666 260.054 123.71 259.81C123.84 257.04 124.39 253.07 125.22 247.81C125.888 243.746 126.253 239.638 126.31 235.52C126.31 233.75 126.23 230.31 126.11 225.8C123.274 226.236 120.392 226.296 117.54 225.98C117.26 225.98 117.11 225.84 117.11 225.66C117.187 224.985 117.314 224.316 117.49 223.66C117.77 222.43 117.94 221.66 117.97 221.36C118.05 220.5 118.08 219.55 118.15 218.59C118.27 217.06 118.49 216.22 118.8 216.28C118.928 216.307 119.055 216.34 119.18 216.38C123.363 217.637 127.818 217.672 132.02 216.48C135.067 215.603 137.993 214.35 140.73 212.75C142.98 211.51 144.12 210.8 144.13 210.75C144.477 210.577 144.677 210.507 144.73 210.54C144.78 210.54 144.83 210.79 144.83 211.17C144.83 211.78 144.83 212.67 144.72 213.76C144.61 214.85 144.57 215.76 144.54 216.26C144.51 216.76 144.54 217.57 144.54 218.55C144.574 219.293 144.564 220.038 144.51 220.78Z" fill="#9D9D9C"/>
<path d="M172.14 250.12C172.34 252.12 172.57 255.92 172.68 260.7C172.8 265.9 172.62 268.15 172.39 268.85C172.22 269.4 171.92 269.64 171.54 269.59C171.263 269.532 170.992 269.448 170.73 269.34C169.41 268.86 165.58 268.14 159.27 266.86C157.89 266.58 155.843 266.137 153.13 265.53C150.417 264.923 148.373 264.483 147 264.21C146.41 264.09 146.12 263.67 146.13 262.9C146.13 259.9 146.26 254.8 146.45 247.64C146.64 240.48 146.78 235.64 146.76 232.97C146.74 230.3 146.99 225.38 147.47 218.56C147.59 216.81 147.78 214.23 147.75 210.56C147.75 210.37 147.75 210.27 147.75 210.08C147.729 209.842 147.781 209.604 147.899 209.397C148.016 209.189 148.195 209.023 148.41 208.92C149.68 208.23 151.6 207.21 154.15 205.92C156.7 204.63 158.62 203.58 159.89 202.92C161.16 202.26 163.05 201.18 165.6 199.92C167.466 198.951 169.386 198.089 171.35 197.34C172.26 197.01 172.77 197.34 172.82 198.34C172.849 200.285 172.742 202.23 172.5 204.16C172.16 207.53 171.83 209.68 171.69 210.43C171.55 211.18 171.35 211.43 171.01 211.51L170.49 211.6C166.43 212.118 162.47 213.237 158.74 214.92C158.352 215.064 157.998 215.287 157.7 215.574C157.403 215.861 157.168 216.207 157.01 216.59C156.757 217.575 156.576 218.578 156.47 219.59C156.213 220.674 156.231 221.804 156.52 222.88C156.73 223.27 157.21 223.34 157.97 223.08C158.13 223.03 158.44 222.91 158.9 222.71C159.36 222.51 159.74 222.38 160.04 222.28C162.04 221.63 164.04 220.94 166.2 220.21L167.58 219.67C168.018 219.484 168.47 219.33 168.93 219.21C169.33 219.12 169.48 219.42 169.39 220.08C169.47 219.48 168.8 221.9 168.39 226.48C168.237 229.053 168.29 231.635 168.55 234.2C168.6 234.96 168.4 235.4 167.92 235.47C167.02 235.36 166.57 235.32 165.68 235.24C163.568 235.298 161.468 235.59 159.42 236.11L156.92 236.66C156.619 236.711 156.345 236.866 156.146 237.098C155.947 237.33 155.835 237.624 155.83 237.93C155.83 238.1 155.83 239.15 155.95 241.22C155.984 243.051 156.157 244.876 156.47 246.68C156.82 248.11 157.93 248.95 159.8 249.19L163.47 249.12C164.805 249.033 166.127 248.798 167.41 248.42C168.712 248.025 170.053 247.777 171.41 247.68C171.71 247.62 172 248.45 172.14 250.12Z" fill="#9D9D9C"/>
<path d="M210.74 193.18C210.82 196.71 211.06 203.77 211.32 213.64C211.58 223.51 211.6 229.19 211.63 232.11C211.94 242.25 213.09 252.32 213.63 262.45C213.63 263.19 213.39 263.63 212.84 263.79C212.29 263.95 211.71 264.16 210.84 264.48C209.97 264.8 209.25 265.04 208.84 265.17C208.119 265.363 207.388 265.52 206.65 265.64C205.65 265.8 204.94 265.94 204.46 266.07C203.98 266.2 203.71 265.81 203.19 264.88C201.68 262.15 197.78 254.14 191.6 239.56C189.9 235.49 187.15 229.66 184.81 224.79C184.715 224.596 184.582 224.423 184.42 224.28C184.229 224.513 184.129 224.808 184.14 225.11C183.97 228.04 184.5 233.95 185.77 244.94C187.04 255.93 187.91 263.89 188.15 267.85C188.22 269.04 187.99 269.58 187.5 269.62C184.395 269.94 181.265 269.94 178.16 269.62C177.63 269.62 177.36 269.11 177.3 268.07C177.08 264.43 176.5 257.22 175.63 246.83C174.76 236.44 174.32 229.95 174.24 226.94C174.15 223.77 174.67 219.16 175.82 212.06C176.97 204.96 177.75 199.77 177.99 196.66C178.005 196.375 178.126 196.106 178.33 195.906C178.534 195.706 178.805 195.59 179.09 195.58C180.09 195.41 181.4 195.14 182.94 194.87C183.3 194.8 184.03 194.61 185.07 194.32C185.75 194.11 186.451 193.975 187.16 193.92C187.36 193.92 187.67 194.31 188.04 195.18C191.28 202.97 191.6 209.51 195.04 220.11C196.119 223.362 197.456 226.522 199.04 229.56C199.57 230.56 200.04 231.12 200.38 231.19C200.72 231.26 200.67 230.08 200.74 228.11C200.84 225.45 200.92 220.21 201.06 212.11C201.2 204.01 201.37 198.32 201.5 195.21C201.5 194.12 201.72 193.62 202.05 193.58C202.98 193.44 204.38 193.17 206.22 192.74C208.06 192.31 209.43 192 210.34 191.85C210.58 191.83 210.72 192.22 210.74 193.18Z" fill="#9D9D9C"/>
<path d="M242 210.15C242.21 211.26 242.12 211.82 241.73 211.82C238.953 211.512 236.192 211.065 233.46 210.48C235.67 224.11 236.8 232.18 237.07 235.36C237.38 239.1 237.24 242.2 237.52 246.45C237.8 250.7 237.94 253.91 237.94 256.39C237.959 256.534 237.946 256.679 237.903 256.817C237.86 256.956 237.787 257.083 237.69 257.19C237.448 257.322 237.189 257.419 236.92 257.48C235.82 257.84 234.2 258.23 232.05 258.71C230.405 259.142 228.735 259.476 227.05 259.71C226.53 259.71 226.26 259.44 226.25 258.84C226.25 256.08 226.08 251.78 225.96 246.12C225.84 240.46 226.06 237.02 225.82 233.38C225.67 230.98 224.82 223.94 223.05 210.55C220.345 211.273 217.548 211.587 214.75 211.48C214.46 211.48 214.31 211.22 214.27 210.77C214.23 210.32 214.27 208.44 214.27 205.61C214.32 202.52 214.36 200.74 214.35 200.12C214.3 198.21 214.21 196.34 214.19 194.68C214.19 192.03 214.32 191.03 214.58 190.99H214.9C218.644 191.1 222.39 190.896 226.1 190.38C227.54 190.22 230.1 189.57 234.23 188.78C236.42 188.36 237.59 188.22 237.61 188.22C237.96 188.22 238.17 188.22 238.23 188.32C238.336 188.605 238.39 188.906 238.39 189.21C238.48 190.06 238.57 191.39 238.82 193.4C239.09 195.62 239.38 197.46 239.57 198.54C239.76 199.62 240.15 201.63 240.74 204.23C241.33 206.83 241.72 208.81 242 210.15Z" fill="#9D9D9C"/>
<path d="M80.3301 330C80.1928 330.816 79.9117 331.602 79.5001 332.32C75.2901 340.26 71.3701 342.48 65.8901 342.48C60.4101 342.48 55.7601 340 52.2801 332.86C48.9001 325.95 47.1601 315.69 47.1901 307.61C47.1901 298.67 48.6501 288.03 52.4101 279.88C56.0701 271.95 60.8801 270.19 66.1501 269.98C71.8901 269.77 75.8501 271.32 79.7701 277.86C80.1577 278.466 80.4101 279.148 80.5101 279.86C80.3058 282.584 79.8607 285.285 79.1801 287.93C78.1801 292.62 77.3201 295.09 76.9701 295.65C76.9164 295.774 76.8308 295.883 76.7219 295.963C76.613 296.044 76.4848 296.095 76.3501 296.11C75.7123 295.524 75.1602 294.85 74.7101 294.11C73.7488 292.702 72.6391 291.401 71.4001 290.23C70.1546 288.969 68.4622 288.251 66.6901 288.23C63.9501 288.32 61.7801 290.37 60.1101 294.34C58.5691 298.075 57.7546 302.07 57.7101 306.11C57.7093 310.173 58.448 314.202 59.8901 318C61.4701 321.95 63.5601 324.11 66.3101 324.07C68.1391 323.964 69.8605 323.171 71.1301 321.85C72.3751 320.632 73.4941 319.292 74.4701 317.85C74.9266 317.072 75.4811 316.356 76.1201 315.72C76.3301 315.72 76.5301 315.89 76.7101 316.28C77.582 318.521 78.2971 320.82 78.8501 323.16C79.5262 325.397 80.0211 327.684 80.3301 330Z" fill="#9D9D9C"/>
<path d="M114.81 340.69C114.81 340.89 114.57 341.03 114.2 341.12C112.486 341.345 110.757 341.428 109.03 341.37C107.432 341.425 105.833 341.341 104.25 341.12C104.112 341.133 103.973 341.113 103.845 341.06C103.716 341.008 103.603 340.925 103.514 340.818C103.425 340.712 103.364 340.585 103.335 340.449C103.307 340.314 103.312 340.173 103.35 340.04C103.237 338.097 103.26 336.149 103.42 334.21C103.66 330.57 104.51 324.32 104.82 316.7C104.872 316.401 104.856 316.094 104.772 315.802C104.688 315.51 104.539 315.241 104.335 315.016C104.132 314.79 103.88 314.614 103.598 314.5C103.317 314.387 103.013 314.339 102.71 314.36C103.37 314.36 102.21 314.5 99.22 314.7C98.88 314.7 98.51 315.7 98.05 317.7C97.44 320.37 96.52 324.56 95.58 329.78C94.64 335 94.2 338.33 94 340.3C93.95 340.79 93.83 341.1 93.68 341.14C93.4291 341.188 93.1752 341.218 92.92 341.23C91.85 341.34 90.19 341.4 87.92 341.4C86.3662 341.47 84.8093 341.393 83.27 341.17C82.75 341.01 82.49 340.59 82.52 339.87C83.0028 333.877 83.7938 327.912 84.89 322C86.32 313.4 86.96 307.86 86.89 305.07C86.65 293.74 84.15 282.67 82.89 271.45V270.83C82.8744 270.581 82.9429 270.335 83.0843 270.13C83.2258 269.925 83.4321 269.774 83.67 269.7C84.23 269.44 86.87 268.84 91.56 267.82C94.7267 267.153 97.26 266.643 99.16 266.29C103.08 265.61 106.32 266.43 110.02 269.63C114.19 273.23 119.02 280.05 122.78 288.55C125.27 294.21 126.08 298.1 125.54 300.55C125 303 122.67 305.34 119.39 308.37C118.844 308.81 118.423 309.386 118.17 310.04C117.929 315.125 117.361 320.188 116.47 325.2C115.584 330.322 115.029 335.496 114.81 340.69ZM111.58 293.16C110.15 288.73 107.97 285.36 105.7 283.72C103.788 282.414 101.437 281.918 99.16 282.34C97.25 282.59 96.37 283.34 96.55 284.42C96.75 285.74 97.84 289.78 99.02 295.42C99.19 296.23 99.44 297.42 99.69 298.83C99.94 300.24 100.06 301.23 100.11 301.83C100.11 301.97 100.52 302.08 101.29 302.15C102.821 302.28 104.359 302.28 105.89 302.15C111.1 301.73 113.61 299.48 111.58 293.16Z" fill="#9D9D9C"/>
<path d="M160.13 335.38C160.13 335.81 159.78 336.26 159.13 336.54C156.941 337.23 154.696 337.728 152.42 338.03C150.29 338.475 148.125 338.726 145.95 338.78C145.19 338.71 144.76 338.16 144.77 337.03C144.77 332.73 145.36 329.64 145.07 329.36C144.78 329.08 141.96 329.36 136.86 329.71C133.43 329.96 131.63 330.22 131.28 330.59C129.967 332.496 128.882 334.55 128.05 336.71C126.81 339.63 126.26 340.86 125.73 341.07C125.2 341.28 122.95 341.46 119.49 341.46C116.76 341.46 115.36 340.97 115.58 340.2C119.04 328.2 130.69 314.84 135.01 303.35C139.23 292.11 128.01 277.5 127.55 265C127.55 263.94 127.78 263.44 128.07 263.47C128.832 263.555 129.587 263.692 130.33 263.88C131.33 264.12 132.13 264.28 132.63 264.35C133.13 264.42 133.83 264.45 134.76 264.5C135.46 264.521 136.158 264.585 136.85 264.69C137.19 264.74 137.53 265.22 138 266.22C144.31 279.22 156.7 291.77 158.75 304.42C160.25 313.36 159.65 326.26 160.13 335.38ZM144.07 290.74C144.46 292.37 145.78 296.14 145.56 300.2C145.33 304.5 143.19 307.43 142.89 308.4C142.69 309.04 143.13 309.4 144.1 309.55C144.59 309.62 145.47 309.72 146.69 309.77C147.91 309.82 148.54 309.57 148.82 309.02C148.924 308.788 149.007 308.547 149.07 308.3C149.976 305.65 149.926 302.767 148.93 300.15C147.703 296.826 146.07 293.665 144.07 290.74Z" fill="#9D9D9C"/>
<path d="M187.39 288.87C187.54 289.25 187.39 289.43 187.07 289.43C184.951 289.317 182.848 288.999 180.79 288.48C177.95 287.82 175.88 287.36 174.58 287.19C172.92 286.99 172.02 286.97 171.85 287.19C171.47 287.71 171.91 289.4 173.03 292.19C174.37 295.53 175.33 297.33 176.26 297.84C176.761 298.07 177.3 298.206 177.85 298.24C179.533 298.382 181.223 298.416 182.91 298.34C185.16 298.26 186.91 298.2 188.11 298.23C188.69 298.23 190.42 301.48 190.51 305.87C190.58 309.7 191.08 311.69 191.03 312.27C191.03 312.68 190.81 312.9 190.47 312.89C189.914 312.738 189.345 312.637 188.77 312.59C186.87 312.29 184.053 312.05 180.32 311.87C179.12 311.81 178.44 311.79 178.32 311.81C178.128 311.831 177.942 311.892 177.775 311.989C177.608 312.086 177.462 312.217 177.349 312.373C177.235 312.529 177.155 312.707 177.114 312.896C177.072 313.085 177.071 313.281 177.11 313.47C177.33 317.31 177.7 322 178.25 326.92C178.76 331.36 178.99 333.08 178.96 332.64C178.96 333.27 178.31 333.74 176.85 334.06C175.803 334.164 174.761 334.32 173.73 334.53C170.892 335.12 168.007 335.455 165.11 335.53C164.42 335.47 164.11 335.13 164.11 334.53C164.24 331.53 164.93 326.35 165.99 319.21C166.821 314.35 167.315 309.438 167.47 304.51C167.47 301.25 165.67 295.88 162.22 288.51C156.88 277.06 155.06 271.68 154.89 270.99C154.83 270.78 154.8 270.67 154.75 270.46C154.58 269.73 154.81 269.46 155.37 269.57C156.69 269.86 158.69 270.35 161.37 270.97C164.05 271.59 166.07 271.97 167.37 272.23C169.491 272.553 171.634 272.707 173.78 272.69C176.63 272.69 178.78 272.69 180.22 272.76C181.12 272.76 181.7 273.36 181.93 274.47C182.318 276.473 182.863 278.442 183.56 280.36C183.82 281.07 184.41 282.47 185.42 284.6C186.31 286.36 187 287.83 187.39 288.87Z" fill="#9D9D9C"/>
<path d="M216.49 281.45C216.72 282.12 216.64 282.53 216.24 282.66C213.478 283.455 210.673 284.096 207.84 284.58C210.84 293.18 212.25 298.66 212.48 301.29C212.75 304.4 212.99 308.76 213.8 316.4C214.61 324.04 215.12 329.67 215.3 332.74C215.3 333.23 215.3 333.51 215.18 333.61C215.06 333.71 214.97 333.61 214.66 333.61C213.505 333.505 212.362 333.304 211.24 333.01C209.945 332.764 208.669 332.43 207.42 332.01C207.199 331.901 207.013 331.731 206.883 331.52C206.754 331.31 206.687 331.067 206.69 330.82C206.38 328.02 205.46 323.48 204.22 317.29C203.353 312.901 202.755 308.462 202.43 304C202.24 301.94 200.87 296.71 197.21 287.49C194.613 288.609 191.835 289.249 189.01 289.38C188.73 289.38 188.52 289.21 188.38 288.87C188.24 288.53 187.8 287.08 187.24 284.87C186.62 282.49 186.33 281.09 186.24 280.61C185.82 279.1 185.41 277.61 185.16 276.2C184.75 273.97 184.94 273.02 185.25 273H185.64C188.64 273.43 193.04 273.25 198.9 271.84C202.026 270.952 205.084 269.839 208.05 268.51L211.68 266.97C212.05 266.85 212.27 266.82 212.33 266.87C212.451 267.098 212.516 267.352 212.52 267.61C212.61 268.32 212.74 269.39 213.02 270.83C213.33 272.42 213.66 273.62 213.86 274.31C214.06 275 214.51 276.31 215.14 277.83C215.77 279.35 216.22 280.65 216.49 281.45Z" fill="#9D9D9C"/>
<path d="M110 168C110 168 109 143.79 84.1201 138.63C59.2401 133.47 63.2901 119.11 63.2901 119.11C63.2901 119.11 58.4001 148.47 79.4001 155.11C100.4 161.75 107.51 161.65 110 168Z" stroke="#9D9D9C" stroke-width="3.5" stroke-miterlimit="10"/>
<path d="M158.23 163.33L171.13 159.46L163.71 175.27C163.205 172.687 162.337 170.189 161.13 167.85C160.307 166.256 159.336 164.742 158.23 163.33Z" stroke="#9D9D9C" stroke-width="3.5" stroke-miterlimit="10"/>
<path d="M88.2 94.85C80.8235 104.04 77.2452 115.705 78.2 127.45L94.66 133.25C89.7434 121.071 87.5422 107.967 88.21 94.85H88.2Z" stroke="#9D9D9C" stroke-width="3.5" stroke-miterlimit="10"/>
<path d="M137.09 168C137.09 168 138.09 143.79 162.74 138.63C187.39 133.47 183.4 119.11 183.4 119.11C183.4 119.11 188.24 148.47 167.4 155.11C146.56 161.75 139.51 161.65 137.09 168Z" stroke="#9D9D9C" stroke-width="3.5" stroke-miterlimit="10"/>
<path d="M81.1 19.82C81.1 19.82 92.88 73.55 99.82 74C99.82 74 93.68 80.29 90.46 80.13C90.46 80.13 88.04 85.94 82.39 85.94L70.77 94.37L66.77 103.08C66.77 103.08 69.16 25.31 81.1 19.82Z" stroke="#9D9D9C" stroke-width="3.5" stroke-miterlimit="10"/>
<path d="M115 191.55C113.7 184.55 126.35 185.05 130.52 187.07C131.654 187.508 132.587 188.348 133.14 189.43C133.494 190.505 133.412 191.676 132.91 192.69C132.399 193.862 131.648 194.913 130.703 195.774C129.759 196.636 128.644 197.289 127.43 197.69C124.978 198.462 122.331 198.327 119.97 197.31C118.016 196.569 116.423 195.105 115.52 193.22C115.28 192.686 115.105 192.126 115 191.55Z" stroke="#9D9D9C" stroke-width="3.5" stroke-miterlimit="10"/>
<path d="M78.1901 159.46L86.4201 175.27C86.5234 173.116 87.1514 171.02 88.2494 169.164C89.3473 167.308 90.882 165.748 92.7201 164.62L78.1901 159.46Z" stroke="#9D9D9C" stroke-width="3.5" stroke-miterlimit="10"/>
<path d="M162.1 94.85C165.99 99.0835 168.948 104.086 170.782 109.535C172.617 114.983 173.287 120.756 172.75 126.48L154.68 134.87C157.173 128.941 159.062 122.777 160.32 116.47C161.737 109.355 162.334 102.101 162.1 94.85Z" stroke="#9D9D9C" stroke-width="3.5" stroke-miterlimit="10"/>
<path d="M167.26 19.82C167.26 19.82 154.03 73.07 148.71 74.82C148.71 74.82 149.51 77.72 157.98 80.3C157.98 80.3 160.48 84.66 164.84 84.66L178.23 95L180.65 101.62C180.65 101.62 179.2 33.86 167.26 19.82Z" stroke="#9D9D9C" stroke-width="3.5" stroke-miterlimit="10"/>
</g>
</g>
<defs>
<clipPath id="clip0_3_28">
<rect width="243" height="343" fill="white"/>
</clipPath>
</defs>
</svg>
